<svg width="66" height="66" viewBox="0 0 66 66" fill="none" xmlns="http://www.w3.org/2000/svg">
<path d="M5 15H17V51H5V15Z" stroke="#1E1D85" stroke-width="2" stroke-linejoin="round"/>
<path d="M53 15H65V51H53V15Z" stroke="#1E1D85" stroke-width="2" stroke-linejoin="round"/>
<path d="M5 15L1 19V45L5 51V15Z" fill="#E42D24" stroke="#1E1D85" stroke-width="2" stroke-linejoin="round"/>
<path d="M53 15L49 19V45L53 51V15Z" fill="#E42D24" stroke="#1E1D85" stroke-width="2" stroke-linejoin="round"/>
<path d="M33 45C33 45 43 39.4444 43 31.1111V21.3889C43 21.3889 37.2488 20 33 20C28.7512 20 23 21.3889 23 21.3889V31.1111C23 39.4444 33 45 33 45Z" stroke="#1E1D85" stroke-width="2" stroke-linecap="round" stroke-linejoin="round"/>
<path d="M39 28H32M39 28L36 25M39 28L36 31" stroke="#1E1D85" stroke-width="2" stroke-linecap="round" stroke-linejoin="round"/>
<path d="M28 34H35M28 34L31 31M28 34L31 37" stroke="#1E1D85" stroke-width="2" stroke-linecap="round" stroke-linejoin="round"/>
</svg>
