<svg width="34" height="34" viewBox="0 0 34 34" fill="none" xmlns="http://www.w3.org/2000/svg">
<path d="M33 22.2587L24.1538 13.3077L4.69231 33M15.1538 22.359L10.2051 17.4103L1 26.6154M4.55556 1H29.4444C31.4081 1 33 2.59188 33 4.55556V29.4444C33 31.4081 31.4081 33 29.4444 33H4.55556C2.59188 33 1 31.4081 1 29.4444V4.55556C1 2.59188 2.59188 1 4.55556 1ZM16.5897 9.61539C16.5897 11.6546 14.9366 13.3077 12.8974 13.3077C10.8582 13.3077 9.20513 11.6546 9.20513 9.61539C9.20513 7.57618 10.8582 5.92308 12.8974 5.92308C14.9366 5.92308 16.5897 7.57618 16.5897 9.61539Z" stroke="#DEDEF4" stroke-width="2" stroke-linecap="round" stroke-linejoin="round"/>
</svg>
