<svg width="66" height="66" viewBox="0 0 66 66" fill="none" xmlns="http://www.w3.org/2000/svg">
<path d="M10 50.0764C9.81227 50.0046 9.62593 49.9287 9.44111 49.8487C7.69241 49.0922 6.11655 47.9868 4.81002 46.6001C3.5035 45.2135 2.49379 43.5749 1.84273 41.7845C1.19167 39.9942 0.912957 38.0898 1.02365 36.188C1.13434 34.2863 1.63211 32.4271 2.48648 30.7243C3.34085 29.0216 4.53385 27.5111 5.99242 26.2853C7.451 25.0596 9.14446 24.1443 10.9691 23.5957C12.7938 23.047 14.7113 22.8765 16.6042 23.0945C18.2921 19.1737 21.1903 15.8955 24.8751 13.7394C28.5598 11.5832 32.8379 10.6622 37.0837 11.1108C41.3296 11.5595 45.3205 13.3544 48.473 16.233C51.6255 19.1117 53.7742 22.9232 54.605 27.1101C57.6224 27.5176 60.3721 29.0565 62.2971 31.4151C64.2221 33.7737 65.1785 36.7756 64.9725 39.8128C64.7665 42.85 63.4136 45.6954 61.1877 47.7726C59.7115 49.1502 57.9245 50.1217 56 50.6187" stroke="#1E1D85" stroke-width="2" stroke-linecap="round"/>
<rect x="18" y="30" width="30" height="21" rx="2" stroke="#1E1D85" stroke-width="2"/>
<rect x="21" y="33" width="24" height="15" fill="#E42D24" stroke="#1E1D85" stroke-width="2"/>
<path d="M15 51H51V53C51 54.1046 50.1046 55 49 55H17C15.8954 55 15 54.1046 15 53V51Z" stroke="#1E1D85" stroke-width="2"/>
</svg>
