<svg width="86" height="86" viewBox="0 0 86 86" fill="none" xmlns="http://www.w3.org/2000/svg">
<circle cx="43" cy="43" r="42" stroke="white" stroke-width="2"/>
<circle cx="43" cy="43" r="34" fill="#918CFF" stroke="white" stroke-width="2"/>
<circle cx="70" cy="70" r="15" fill="#918CFF" stroke="white" stroke-width="2"/>
<path d="M56.066 53.9858V58.9998H31.916V26.7998H55.422V31.8138H37.896V40.1858H53.444V45.1078H37.896V53.9858H56.066Z" fill="white"/>
<path d="M70.8978 76.252C69.5778 76.252 68.3898 75.976 67.3338 75.424C66.2898 74.86 65.4678 74.0799 64.8678 73.084C64.2678 72.0879 63.9678 70.9599 63.9678 69.6999C63.9678 68.4399 64.2678 67.3119 64.8678 66.3159C65.4678 65.3199 66.2898 64.5459 67.3338 63.9939C68.3898 63.4299 69.5778 63.1479 70.8978 63.1479C72.0498 63.1479 73.0878 63.3519 74.0118 63.7599C74.9358 64.1679 75.7038 64.7559 76.3158 65.5239L74.0478 67.5759C73.2318 66.5919 72.2418 66.0999 71.0778 66.0999C70.3938 66.0999 69.7818 66.2499 69.2418 66.5499C68.7138 66.8499 68.2998 67.2759 67.9998 67.8279C67.7118 68.3679 67.5678 68.9919 67.5678 69.6999C67.5678 70.4079 67.7118 71.0379 67.9998 71.5899C68.2998 72.1299 68.7138 72.5499 69.2418 72.8499C69.7818 73.1499 70.3938 73.2999 71.0778 73.2999C72.2418 73.2999 73.2318 72.8079 74.0478 71.8239L76.3158 73.8759C75.7038 74.6439 74.9358 75.2319 74.0118 75.6399C73.0878 76.0479 72.0498 76.252 70.8978 76.252Z" fill="white"/>
</svg>
