<svg width="86" height="86" viewBox="0 0 86 86" fill="none" xmlns="http://www.w3.org/2000/svg">
<circle cx="43" cy="43" r="42" stroke="white" stroke-width="2"/>
<circle cx="43" cy="43" r="34" fill="#E42D24" stroke="white" stroke-width="2"/>
<path d="M52.569 58.9998L45.991 49.5698C45.715 49.6005 45.301 49.6158 44.749 49.6158H37.481V58.9998H31.501V26.7998H44.749C47.5396 26.7998 49.9623 27.2598 52.017 28.1798C54.1023 29.0998 55.697 30.4185 56.801 32.1358C57.905 33.8531 58.457 35.8925 58.457 38.2538C58.457 40.6765 57.859 42.7618 56.663 44.5098C55.4976 46.2578 53.811 47.5611 51.603 48.4198L59.009 58.9998H52.569ZM52.431 38.2538C52.431 36.1991 51.7563 34.6198 50.407 33.5158C49.0576 32.4118 47.0796 31.8598 44.473 31.8598H37.481V44.6938H44.473C47.0796 44.6938 49.0576 44.1418 50.407 43.0378C51.7563 41.9031 52.431 40.3085 52.431 38.2538Z" fill="white"/>
</svg>
