<svg width="48" height="41" viewBox="0 0 48 41" fill="none" xmlns="http://www.w3.org/2000/svg">
<path fill-rule="evenodd" clip-rule="evenodd" d="M13.0383 12.3804C13.3457 12.1345 13.7275 12.0004 14.1212 12H15.8747C16.2687 12 16.651 12.1339 16.9589 12.3797C17.2668 12.6256 17.4819 12.9688 17.569 13.353L18.0575 15.499C18.8247 15.7222 19.5649 16.0293 20.2648 16.4146L22.1247 15.2415C22.4581 15.031 22.8532 14.9402 23.2451 14.984C23.6369 15.0279 24.0022 15.2037 24.2809 15.4826L25.5194 16.7212C25.7983 16.9999 25.9742 17.3651 26.018 17.757C26.0618 18.1488 25.971 18.5439 25.7606 18.8774L24.5874 20.7372C24.9696 21.4321 25.2762 22.1679 25.501 22.9445L27.647 23.4289C28.0316 23.5161 28.375 23.7316 28.6209 24.0399C28.8668 24.3482 29.0005 24.7309 29 25.1253V26.8768C29 27.2708 28.8661 27.6531 28.6203 27.9609C28.3744 28.2688 28.0312 28.484 27.647 28.5711L25.501 29.0575C25.2762 29.8342 24.9676 30.5699 24.5854 31.2648L25.7585 33.1267C25.9685 33.4599 26.059 33.8546 26.0151 34.246C25.9713 34.6374 25.7958 35.0023 25.5174 35.2809L24.2788 36.5194C24.0003 36.7978 23.6354 36.9734 23.244 37.0172C22.8526 37.061 22.4579 36.9705 22.1247 36.7606L20.2628 35.5874C19.5679 35.9696 18.8321 36.2762 18.0555 36.501L17.569 38.647C17.4819 39.0312 17.2668 39.3744 16.9589 39.6203C16.651 39.8661 16.2687 40 15.8747 40H14.1232C13.7292 40 13.3469 39.8661 13.0391 39.6203C12.7312 39.3744 12.516 39.0312 12.4289 38.647L11.9425 36.501C11.1679 36.2762 10.4301 35.9676 9.73723 35.5874L7.87533 36.7606C7.5421 36.9705 7.14742 37.061 6.75602 37.0172C6.36462 36.9734 5.99972 36.7978 5.72117 36.5194L4.48058 35.2809C4.20166 35.0022 4.02583 34.6369 3.98201 34.2451C3.93818 33.8532 4.02895 33.4581 4.23942 33.1247L5.4146 31.2648C5.03241 30.5699 4.7238 29.8321 4.49898 29.0575L2.35299 28.5711C1.96877 28.484 1.62557 28.2688 1.37972 27.9609C1.13387 27.6531 0.999976 27.2708 1 26.8768V25.1253C0.999976 24.7313 1.13387 24.349 1.37972 24.0411C1.62557 23.7332 1.96877 23.5181 2.35299 23.4309L4.49898 22.9445C4.7238 22.1699 5.03241 21.4301 5.41255 20.7393L4.23942 18.8753C4.02948 18.5421 3.939 18.1474 3.98282 17.756C4.02664 17.3646 4.20215 16.9997 4.48058 16.7212L5.71912 15.4826C5.99781 15.2037 6.3631 15.0279 6.75495 14.984C7.1468 14.9402 7.5419 15.031 7.87533 15.2415L9.73518 16.4146C10.4301 16.0345 11.1658 15.7238 11.9425 15.499L12.4289 13.353C12.516 12.9691 12.7308 12.6262 13.0383 12.3804ZM19.2426 30.2426C20.3679 29.1174 21 27.5913 21 26C21 24.4087 20.3679 22.8826 19.2426 21.7574C18.1174 20.6321 16.5913 20 15 20C13.4087 20 11.8826 20.6321 10.7574 21.7574C9.63214 22.8826 9 24.4087 9 26C9 27.5913 9.63214 29.1174 10.7574 30.2426C11.8826 31.3679 13.4087 32 15 32C16.5913 32 18.1174 31.3679 19.2426 30.2426Z" stroke="white" stroke-width="2"/>
<path fill-rule="evenodd" clip-rule="evenodd" d="M36.3723 1C36.0911 1.00031 35.8184 1.09611 35.5988 1.27169C35.3792 1.44726 35.2257 1.69222 35.1635 1.96642L34.8161 3.49927C34.2613 3.65985 33.7358 3.88175 33.2394 4.15328L31.9109 3.31533C31.6728 3.165 31.3906 3.10016 31.1107 3.13146C30.8308 3.16277 30.5699 3.28836 30.3708 3.48759L29.4861 4.37226C29.2873 4.57123 29.1619 4.83187 29.1306 5.11144C29.0993 5.39102 29.1639 5.67293 29.3139 5.91095L30.1518 7.24233C29.8803 7.73577 29.6599 8.26423 29.4993 8.81752L27.9664 9.16496C27.692 9.2272 27.4468 9.38089 27.2712 9.60079C27.0956 9.8207 27 10.0938 27 10.3752V11.6263C27 11.9077 27.0956 12.1808 27.2712 12.4007C27.4468 12.6206 27.692 12.7743 27.9664 12.8365L29.4993 13.1839C29.6599 13.7372 29.8803 14.2642 30.1533 14.7606L29.3139 16.089C29.1635 16.3272 29.0987 16.6094 29.13 16.8893C29.1613 17.1692 29.2869 17.4301 29.4861 17.6292L30.3723 18.5139C30.5712 18.7127 30.8319 18.8381 31.1114 18.8694C31.391 18.9007 31.6729 18.8361 31.9109 18.6861L33.2409 17.8482C33.7358 18.1197 34.2628 18.3401 34.8161 18.5007L35.1635 20.0336C35.2257 20.308 35.3794 20.5532 35.5993 20.7288C35.8192 20.9044 36.0923 21 36.3737 21H37.6248C37.9062 21 38.1793 20.9044 38.3992 20.7288C38.6191 20.5532 38.7728 20.308 38.835 20.0336L39.1825 18.5007C39.7372 18.3401 40.2628 18.1212 40.7591 17.8482L42.0891 18.6861C42.3271 18.8361 42.609 18.9007 42.8886 18.8694C43.1681 18.8381 43.4288 18.7127 43.6277 18.5139L44.5124 17.6292C44.7113 17.4302 44.8367 17.1696 44.868 16.89C44.8993 16.6104 44.8346 16.3285 44.6847 16.0905L43.8467 14.7606C44.1197 14.2642 44.3401 13.7387 44.5007 13.1839L46.0336 12.8365C46.308 12.7743 46.5532 12.6206 46.7288 12.4007C46.9044 12.1808 47 11.9077 47 11.6263V10.3752C47.0003 10.0935 46.9049 9.82011 46.7292 9.5999C46.5536 9.3797 46.3083 9.2258 46.0336 9.1635L44.5007 8.81752C44.3401 8.26277 44.1212 7.73722 43.8482 7.24087L44.6861 5.91241C44.8365 5.67425 44.9013 5.39203 44.87 5.11214C44.8387 4.83224 44.7131 4.57133 44.5139 4.37226L43.6292 3.48759C43.4301 3.28836 43.1692 3.16277 42.8893 3.13146C42.6094 3.10016 42.3272 3.165 42.0891 3.31533L40.7606 4.15328C40.2606 3.87805 39.7319 3.65872 39.1839 3.49927L38.835 1.96642C38.7728 1.69198 38.6191 1.44684 38.3992 1.27123C38.1793 1.09562 37.9062 0.999983 37.6248 1H36.3723ZM40.5416 11C40.5416 11.9389 40.1686 12.8394 39.5047 13.5033C38.8408 14.1672 37.9404 14.5401 37.0015 14.5401C36.0626 14.5401 35.1621 14.1672 34.4982 13.5033C33.8343 12.8394 33.4613 11.9389 33.4613 11C33.4613 10.0611 33.8343 9.16064 34.4982 8.49674C35.1621 7.83283 36.0626 7.45985 37.0015 7.45985C37.9404 7.45985 38.8408 7.83283 39.5047 8.49674C40.1686 9.16064 40.5416 10.0611 40.5416 11Z" fill="#E42D24" stroke="white" stroke-width="2"/>
</svg>
