<svg width="60" height="46" viewBox="0 0 60 46" fill="none" xmlns="http://www.w3.org/2000/svg">
<path d="M59 11H50C49.4477 11 49 10.5523 49 10V1M48.5858 1H2C1.44772 1 1 1.44771 1 2V44C1 44.5523 1.44771 45 2 45H58C58.5523 45 59 44.5523 59 44V11.4142C59 11.149 58.8946 10.8946 58.7071 10.7071L49.2929 1.29289C49.1054 1.10536 48.851 1 48.5858 1Z" stroke="#1E1D85" stroke-width="2"/>
<path d="M37 23L37 33" stroke="#1E1D85" stroke-width="2" stroke-linecap="round"/>
<path d="M49 19L49 33" stroke="#1E1D85" stroke-width="2" stroke-linecap="round"/>
<path d="M43 26V33" stroke="#1E1D85" stroke-width="2" stroke-linecap="round"/>
<path d="M20 15C18.4202 15 16.8682 15.4159 15.5 16.2058C14.1318 16.9957 12.9957 18.1318 12.2058 19.5C11.4159 20.8682 11 22.4202 11 24C11 25.5798 11.4159 27.1318 12.2058 28.5C12.9957 29.8682 14.1318 31.0043 15.5 31.7942C16.8682 32.5841 18.4202 33 20 33C21.5798 33 23.1318 32.5841 24.5 31.7942C25.8682 31.0043 27.0043 29.8682 27.7942 28.5L20 24V15Z" fill="#E42D24" stroke="#1E1D85" stroke-width="2" stroke-linejoin="round"/>
<path d="M27.7709 28.5403C28.5697 27.1731 28.9937 25.6193 29 24.0359C29.0063 22.4524 28.5947 20.8954 27.8069 19.5218C27.019 18.1483 25.8827 17.007 24.5126 16.213C23.1426 15.4191 21.5874 15.0007 20.0039 15" stroke="#1E1D85" stroke-width="2" stroke-linejoin="round"/>
</svg>
