<svg width="16" height="17" viewBox="0 0 16 17" fill="none" xmlns="http://www.w3.org/2000/svg">
<path d="M12.5 2.5H13.5C14.6046 2.5 15.5 3.39543 15.5 4.5V12.5C15.5 13.6046 14.6046 14.5 13.5 14.5H12.5M6.5 2.5H2.5C1.39543 2.5 0.5 3.39543 0.5 4.5V12.5C0.5 13.6046 1.39543 14.5 2.5 14.5H6.5" stroke="#7470E0"/>
<rect x="6.5" y="0.5" width="6" height="4" stroke="#7470E0"/>
<rect x="2.5" y="4.5" width="2" height="8" rx="0.5" stroke="#7470E0"/>
<rect x="6.5" y="12.5" width="6" height="4" stroke="#7470E0"/>
<path d="M7 6H8V7H7V6Z" fill="#7470E0"/>
<path d="M9 6H10V7H9V6Z" fill="#7470E0"/>
<path d="M11 6H12V7H11V6Z" fill="#7470E0"/>
<path d="M7 8H8V9H7V8Z" fill="#7470E0"/>
<path d="M9 8H10V9H9V8Z" fill="#7470E0"/>
<path d="M11 8H12V9H11V8Z" fill="#7470E0"/>
<path d="M7 10H8V11H7V10Z" fill="#7470E0"/>
<path d="M9 10H10V11H9V10Z" fill="#7470E0"/>
<path d="M11 10H12V11H11V10Z" fill="#7470E0"/>
</svg>
