<svg width="44" height="32" viewBox="0 0 44 32" fill="none" xmlns="http://www.w3.org/2000/svg">
<circle cx="38" cy="25" r="5" fill="#E42D24" stroke="#1E1D85" stroke-width="2"/>
<path d="M16.3599 11.8804C18.0666 11.8804 19.6532 12.2537 21.1199 13.0004C22.5866 13.747 23.7599 14.8004 24.6399 16.1604C25.5199 17.5204 25.9599 19.0804 25.9599 20.8404C25.9599 22.787 25.4532 24.507 24.4399 26.0004C23.4532 27.4937 22.0932 28.6404 20.3599 29.4404C18.6266 30.2404 16.7066 30.6404 14.5999 30.6404C11.9066 30.6404 9.54658 30.1204 7.51991 29.0804C5.51991 28.0404 3.95991 26.4937 2.83991 24.4404C1.71991 22.387 1.15991 19.867 1.15991 16.8804C1.15991 13.6804 1.79991 10.907 3.07991 8.56035C4.38658 6.21369 6.19991 4.42702 8.51991 3.20035C10.8666 1.97368 13.5866 1.36035 16.6799 1.36035C18.3599 1.36035 19.9599 1.56035 21.4799 1.96035C22.9999 2.33368 24.2932 2.86702 25.3599 3.56035L21.9599 10.1604C20.5732 9.17368 18.8799 8.68035 16.8799 8.68035C15.2532 8.68035 13.9066 9.09368 12.8399 9.92035C11.7999 10.7204 11.1199 11.8937 10.7999 13.4404C12.2666 12.4004 14.1199 11.8804 16.3599 11.8804ZM13.9599 24.1204C14.8132 24.1204 15.5066 23.867 16.0399 23.3604C16.5732 22.8537 16.8399 22.1604 16.8399 21.2804C16.8399 20.4004 16.5732 19.707 16.0399 19.2004C15.5066 18.667 14.8132 18.4004 13.9599 18.4004C13.1066 18.4004 12.4132 18.667 11.8799 19.2004C11.3466 19.707 11.0799 20.4004 11.0799 21.2804C11.0799 22.1604 11.3466 22.8537 11.8799 23.3604C12.4132 23.867 13.1066 24.1204 13.9599 24.1204Z" stroke="#1E1D85" stroke-width="2"/>
</svg>
