<svg width="86" height="86" viewBox="0 0 86 86" fill="none" xmlns="http://www.w3.org/2000/svg">
<circle cx="43" cy="43" r="42" stroke="white" stroke-width="2"/>
<circle cx="43" cy="43" r="34" fill="#E42D24" stroke="white" stroke-width="2"/>
<path d="M24.2178 35.3002H17.2578V32.0002H35.0778V35.3002H28.1178V53.0002H24.2178V35.3002Z" fill="white"/>
<path d="M36.5047 32.0002H40.4047V49.7002H51.3847V53.0002H36.5047V32.0002Z" fill="white"/>
<path d="M59.3272 53.3002C57.7072 53.3002 56.1372 53.0702 54.6172 52.6102C53.1172 52.1502 51.9272 51.5402 51.0472 50.7802L52.3972 47.7502C53.2572 48.4302 54.3072 48.9902 55.5472 49.4302C56.8072 49.8502 58.0672 50.0602 59.3272 50.0602C60.8872 50.0602 62.0472 49.8102 62.8072 49.3102C63.5872 48.8102 63.9772 48.1502 63.9772 47.3302C63.9772 46.7302 63.7572 46.2402 63.3172 45.8602C62.8972 45.4602 62.3572 45.1502 61.6972 44.9302C61.0372 44.7102 60.1372 44.4602 58.9972 44.1802C57.3972 43.8002 56.0972 43.4202 55.0972 43.0402C54.1172 42.6602 53.2672 42.0702 52.5472 41.2702C51.8472 40.4502 51.4972 39.3502 51.4972 37.9702C51.4972 36.8102 51.8072 35.7602 52.4272 34.8202C53.0672 33.8602 54.0172 33.1002 55.2772 32.5402C56.5572 31.9802 58.1172 31.7002 59.9572 31.7002C61.2372 31.7002 62.4972 31.8602 63.7372 32.1802C64.9772 32.5002 66.0472 32.9602 66.9472 33.5602L65.7172 36.5902C64.7972 36.0502 63.8372 35.6402 62.8372 35.3602C61.8372 35.0802 60.8672 34.9402 59.9272 34.9402C58.3872 34.9402 57.2372 35.2002 56.4772 35.7202C55.7372 36.2402 55.3672 36.9302 55.3672 37.7902C55.3672 38.3902 55.5772 38.8802 55.9972 39.2602C56.4372 39.6402 56.9872 39.9402 57.6472 40.1602C58.3072 40.3802 59.2072 40.6302 60.3472 40.9102C61.9072 41.2702 63.1872 41.6502 64.1872 42.0502C65.1872 42.4302 66.0372 43.0202 66.7372 43.8202C67.4572 44.6202 67.8172 45.7002 67.8172 47.0602C67.8172 48.2202 67.4972 49.2702 66.8572 50.2102C66.2372 51.1502 65.2872 51.9002 64.0072 52.4602C62.7272 53.0202 61.1672 53.3002 59.3272 53.3002Z" fill="white"/>
</svg>
