<svg width="295" height="155" viewBox="0 0 295 155" fill="none" xmlns="http://www.w3.org/2000/svg">
<rect x="0.5" y="0.5" width="294" height="154" fill="#F6F6FF" stroke="#DEDEF4"/>
<path d="M179 88.5175L161.308 70.6154L122.385 110M143.308 88.718L133.41 78.8205L115 97.2308M122.111 46H171.889C175.816 46 179 49.1838 179 53.1111V102.889C179 106.816 175.816 110 171.889 110H122.111C118.184 110 115 106.816 115 102.889V53.1111C115 49.1838 118.184 46 122.111 46ZM146.179 63.2308C146.179 67.3092 142.873 70.6154 138.795 70.6154C134.716 70.6154 131.41 67.3092 131.41 63.2308C131.41 59.1524 134.716 55.8462 138.795 55.8462C142.873 55.8462 146.179 59.1524 146.179 63.2308Z" stroke="#DEDEF4" stroke-width="2" stroke-linecap="round" stroke-linejoin="round"/>
</svg>
