<svg width="44" height="31" viewBox="0 0 44 31" fill="none" xmlns="http://www.w3.org/2000/svg">
<circle cx="38" cy="24" r="5" fill="#E42D24" stroke="#1E1D85" stroke-width="2"/>
<path d="M18.88 12.08C21.04 12.6133 22.6933 13.5867 23.84 15C25.0133 16.3867 25.6 18.0667 25.6 20.04C25.6 21.72 25.1333 23.2933 24.2 24.76C23.2933 26.2 21.88 27.3733 19.96 28.28C18.04 29.1867 15.6533 29.64 12.8 29.64C10.8267 29.64 8.85334 29.4267 6.88001 29C4.93334 28.5733 3.22668 27.9467 1.76001 27.12L4.96001 20.16C6.10668 20.8267 7.33334 21.3333 8.64001 21.68C9.97334 22.0267 11.2533 22.2 12.48 22.2C13.5733 22.2 14.4533 22.0133 15.12 21.64C15.7867 21.2667 16.12 20.7333 16.12 20.04C16.12 18.76 15.0133 18.12 12.8 18.12H9.08001V12.32L13.2 8.12H3.20001V1H24.08V6.8L18.88 12.08Z" stroke="#1E1D85" stroke-width="2"/>
</svg>
