<svg width="66" height="66" viewBox="0 0 66 66" fill="none" xmlns="http://www.w3.org/2000/svg">
<path d="M5.88255 12.2958C6.57403 11.9016 7.42597 11.9016 8.11745 12.2958L11.8825 14.4423C12.574 14.8366 13 15.5651 13 16.3536V20.6467C13 21.4351 12.574 22.1637 11.8825 22.5579L8.11745 24.7045C7.42597 25.0987 6.57403 25.0987 5.88255 24.7045L2.11745 22.5579C1.42597 22.1637 1 21.4351 1 20.6467V16.3536C1 15.5651 1.42597 14.8366 2.11745 14.4423L5.88255 12.2958Z" stroke="#1E1D85" stroke-width="2"/>
<path d="M45.8825 12.2958C46.574 11.9016 47.426 11.9016 48.1175 12.2958L51.8825 14.4423C52.574 14.8366 53 15.5651 53 16.3536V20.6467C53 21.4351 52.574 22.1637 51.8825 22.5579L48.1175 24.7045C47.426 25.0987 46.574 25.0987 45.8825 24.7045L42.1175 22.5579C41.426 22.1637 41 21.4351 41 20.6467V16.3536C41 15.5651 41.426 14.8366 42.1175 14.4423L45.8825 12.2958Z" stroke="#1E1D85" stroke-width="2"/>
<path d="M25.8825 45.2958C26.574 44.9016 27.426 44.9016 28.1175 45.2958L31.8825 47.4423C32.574 47.8366 33 48.5651 33 49.3536V53.6467C33 54.4351 32.574 55.1637 31.8825 55.5579L28.1175 57.7045C27.426 58.0987 26.574 58.0987 25.8825 57.7045L22.1175 55.5579C21.426 55.1637 21 54.4351 21 53.6467V49.3536C21 48.5651 21.426 47.8366 22.1175 47.4423L25.8825 45.2958Z" stroke="#1E1D85" stroke-width="2"/>
<path d="M26.9999 38.0001C26.9999 38.0001 33.9999 34.4446 33.9999 29.0125V22.9878C33.9999 22.9878 29.9741 22.0001 26.9999 22.0001C24.0258 22.0001 19.9999 22.9878 19.9999 22.9878V29.0125C19.9999 34.0001 26.9999 38.0001 26.9999 38.0001Z" fill="#E42D24" stroke="#1E1D85" stroke-width="2" stroke-linecap="round" stroke-linejoin="round"/>
<path d="M15.1164 45.5332L9.55483 42.5192C7.84343 41.5918 7.00798 40.0374 7.0024 38.0605L6.9858 32.1825M15.1164 45.5332L10.9882 46.7607M15.1164 45.5332L13.8873 41.5076M6.9858 32.1825L4.00243 35.0554M6.9858 32.1825L10.0024 35.0605" stroke="#1E1D85" stroke-width="2" stroke-linecap="round" stroke-linejoin="round"/>
<path d="M38.8836 45.5332L44.4452 42.5192C46.1566 41.5918 46.992 40.0374 46.9976 38.0605L47.0142 32.1825M38.8836 45.5332L43.0118 46.7607M38.8836 45.5332L40.1127 41.5076M47.0142 32.1825L49.9976 35.0554M47.0142 32.1825L43.9976 35.0605" stroke="#1E1D85" stroke-width="2" stroke-linecap="round" stroke-linejoin="round"/>
<path d="M18.9999 11.1688L24.5824 7.96403C26.3002 6.97788 28.1043 7.06561 29.8397 8.08215L34.9999 11.1047M18.9999 11.1688L20.1072 7M18.9999 11.1688L23.1779 12.1961M34.9999 11.1047L34.0598 7.06608M34.9999 11.1047L30.8824 12.2007" stroke="#1E1D85" stroke-width="2" stroke-linecap="round" stroke-linejoin="round"/>
</svg>
