<svg width="44" height="52" viewBox="0 0 44 52" fill="none" xmlns="http://www.w3.org/2000/svg">
<path d="M13.3798 25.123C13.7297 25.0366 14.0956 24.9908 14.4722 24.9908C16.9812 24.9908 19.0151 27.0247 19.0151 29.5337C19.0151 29.9007 18.9716 30.2576 18.8894 30.5994C30.8237 39.5864 42.7344 32.4606 42.7344 32.4606L11.4144 1.14062C11.4144 1.14062 4.23381 13.1429 13.3798 25.123Z" fill="#E42D24" stroke="#1E1D85" stroke-width="2" stroke-linejoin="round"/>
<path d="M16.3858 33.5858C15.8492 33.8335 15.2691 33.973 14.6786 33.9965C14.0882 34.0199 13.4988 33.9268 12.9443 33.7225C12.3898 33.5182 11.881 33.2067 11.4468 32.8058C11.0127 32.4048 10.6618 31.9223 10.4142 31.3858C10.1665 30.8492 10.027 30.2691 10.0035 29.6786C9.98009 29.0882 10.0732 28.4988 10.2775 27.9443C10.4818 27.3898 10.7933 26.881 11.1942 26.4468C11.5952 26.0127 12.0777 25.6618 12.6142 25.4142C13.1508 25.1665 13.7309 25.027 14.3214 25.0035C14.9118 24.9801 15.5012 25.0732 16.0557 25.2775C16.6102 25.4818 17.119 25.7933 17.5532 26.1942C17.9873 26.5952 18.3382 27.0777 18.5858 27.6142C18.8335 28.1508 18.973 28.7309 18.9965 29.3214C19.0199 29.9118 18.9268 30.5012 18.7225 31.0557C18.5182 31.6102 18.2067 32.119 17.8058 32.5532C17.4048 32.9873 16.9223 33.3382 16.3858 33.5858L16.3858 33.5858Z" stroke="#1E1D85" stroke-width="2"/>
<path d="M21.2812 10.8996L36.9276 7.82764M36.9276 7.82764L33.8557 23.474M36.9276 7.82764L27.5277 17.2275" stroke="#1E1D85" stroke-width="2" stroke-linecap="round" stroke-linejoin="round"/>
<path d="M1 51L12 33.5M1 51H28L17 33.5M1 51L22 42.3333L9.64706 38" stroke="#1E1D85" stroke-width="2" stroke-linecap="round" stroke-linejoin="round"/>
</svg>
