<svg width="66" height="66" viewBox="0 0 66 66" fill="none" xmlns="http://www.w3.org/2000/svg">
<path fill-rule="evenodd" clip-rule="evenodd" d="M49 11H37V55H49V11ZM45 18H41V32H45V18ZM43 49C44.1046 49 45 48.1046 45 47C45 45.8954 44.1046 45 43 45C41.8954 45 41 45.8954 41 47C41 48.1046 41.8954 49 43 49Z" stroke="#1E1D85" stroke-width="2" stroke-linejoin="round"/>
<path fill-rule="evenodd" clip-rule="evenodd" d="M37 11H25V55H37V11ZM33 18H29V32H33V18ZM31 49C32.1046 49 33 48.1046 33 47C33 45.8954 32.1046 45 31 45C29.8954 45 29 45.8954 29 47C29 48.1046 29.8954 49 31 49Z" fill="#E42D24" stroke="#1E1D85" stroke-width="2" stroke-linejoin="round"/>
<path d="M13 11L1 17.6489V49.4267L13 55V11Z" stroke="#1E1D85" stroke-width="2" stroke-linejoin="round"/>
<path fill-rule="evenodd" clip-rule="evenodd" d="M25 11H13V55H25V11ZM21 18H17V32H21V18ZM19 49C20.1046 49 21 48.1046 21 47C21 45.8954 20.1046 45 19 45C17.8954 45 17 45.8954 17 47C17 48.1046 17.8954 49 19 49Z" stroke="#1E1D85" stroke-width="2" stroke-linejoin="round"/>
</svg>
