<svg width="66" height="66" viewBox="0 0 66 66" fill="none" xmlns="http://www.w3.org/2000/svg">
<path d="M5 28H43V48C43 53.5228 38.5228 58 33 58H15C9.47715 58 5 53.5228 5 48V28Z" stroke="#1E1D85" stroke-width="2"/>
<path fill-rule="evenodd" clip-rule="evenodd" d="M5 28H1V48C1 53.5228 5.47715 58 11 58H15C9.47715 58 5 53.5228 5 48V28Z" fill="#E42D24"/>
<path d="M1 28V27H0V28H1ZM5 28H6V27H5V28ZM1 29H5V27H1V29ZM2 48V28H0V48H2ZM11 57C6.02944 57 2 52.9706 2 48H0C0 54.0751 4.92487 59 11 59V57ZM15 57H11V59H15V57ZM15 57C10.0294 57 6 52.9706 6 48H4C4 54.0751 8.92487 59 15 59V57ZM6 48V28H4V48H6Z" fill="#1E1D85"/>
<path d="M8 28H36V22C36 14.268 29.732 8 22 8V8C14.268 8 8 14.268 8 22V28Z" stroke="#1E1D85" stroke-width="2"/>
<path d="M12 28H32V22C32 16.4772 27.5228 12 22 12V12C16.4772 12 12 16.4772 12 22V28Z" stroke="#1E1D85" stroke-width="2"/>
<path d="M27.5 38.5C27.5 40.433 25.933 42 24 42C22.067 42 20.5 40.433 20.5 38.5C20.5 36.567 22.067 35 24 35C25.933 35 27.5 36.567 27.5 38.5Z" fill="#E42D24"/>
<path d="M31 49C31 49 27.866 49 24 49C20.134 49 17 49 17 49C17 45.134 20.134 42 24 42C27.866 42 31 45.134 31 49Z" fill="#E42D24"/>
<path d="M24 42C25.933 42 27.5 40.433 27.5 38.5C27.5 36.567 25.933 35 24 35C22.067 35 20.5 36.567 20.5 38.5C20.5 40.433 22.067 42 24 42ZM24 42C20.134 42 17 45.134 17 49C17 49 20.134 49 24 49C27.866 49 31 49 31 49C31 45.134 27.866 42 24 42Z" stroke="#1E1D85" stroke-width="2"/>
</svg>
