<svg>
    <symbol id="download-arrow"  viewBox="0 0 22 21" fill="none" xmlns="http://www.w3.org/2000/svg">
        <path d="M11 1V17M11 17L17.5 10.5M11 17L4.5 10.5M1 20H21" stroke="currentColor" stroke-width="2" stroke-linecap="round" stroke-linejoin="round"/>
    </symbol>

    <symbol id="about-number-1" viewBox="0 0 35 30" fill="none" xmlns="http://www.w3.org/2000/svg">
        <circle cx="29" cy="24" r="5" fill="#E42D24" stroke="#1E1D85" stroke-width="2"/>
        <path d="M15.4402 1V29H6.0002V8.12H1.2002V1H15.4402Z" stroke="#1E1D85" stroke-width="2"/>
    </symbol>

    <symbol id="about-number-2" viewBox="0 0 45 31" fill="none" xmlns="http://www.w3.org/2000/svg">
        <circle cx="39" cy="25" r="5" fill="#E42D24" stroke="#1E1D85" stroke-width="2"/>
        <path d="M25.56 22.6804V30.0004H3.11998V24.2004L13.24 14.8404C14.12 14.0137 14.7066 13.307 15 12.7204C15.2933 12.1337 15.44 11.5604 15.44 11.0004C15.44 10.307 15.2 9.77368 14.72 9.40035C14.2666 9.00035 13.6 8.80035 12.72 8.80035C11.8666 8.80035 11.0666 9.02702 10.32 9.48035C9.57331 9.93369 8.99998 10.5737 8.59998 11.4004L1.47998 7.84035C2.54665 5.84035 4.10665 4.26702 6.15998 3.12035C8.21331 1.94702 10.6933 1.36035 13.6 1.36035C15.8133 1.36035 17.7733 1.72035 19.48 2.44035C21.1866 3.16035 22.52 4.18702 23.48 5.52035C24.44 6.85368 24.92 8.38702 24.92 10.1204C24.92 11.667 24.5866 13.1204 23.92 14.4804C23.28 15.8137 22.0133 17.3337 20.12 19.0404L16.12 22.6804H25.56Z" stroke="#1E1D85" stroke-width="2"/>
    </symbol>

    <symbol id="about-number-3" viewBox="0 0 44 31" fill="none" xmlns="http://www.w3.org/2000/svg">
        <circle cx="38" cy="24" r="5" fill="#E42D24" stroke="#1E1D85" stroke-width="2"/>
        <path d="M18.88 12.08C21.04 12.6133 22.6933 13.5867 23.84 15C25.0133 16.3867 25.6 18.0667 25.6 20.04C25.6 21.72 25.1333 23.2933 24.2 24.76C23.2933 26.2 21.88 27.3733 19.96 28.28C18.04 29.1867 15.6533 29.64 12.8 29.64C10.8267 29.64 8.85334 29.4267 6.88001 29C4.93334 28.5733 3.22668 27.9467 1.76001 27.12L4.96001 20.16C6.10668 20.8267 7.33334 21.3333 8.64001 21.68C9.97334 22.0267 11.2533 22.2 12.48 22.2C13.5733 22.2 14.4533 22.0133 15.12 21.64C15.7867 21.2667 16.12 20.7333 16.12 20.04C16.12 18.76 15.0133 18.12 12.8 18.12H9.08001V12.32L13.2 8.12H3.20001V1H24.08V6.8L18.88 12.08Z" stroke="#1E1D85" stroke-width="2"/>
    </symbol>

    <symbol id="about-number-4" viewBox="0 0 48 30" fill="none" xmlns="http://www.w3.org/2000/svg">
        <circle cx="42" cy="24" r="5" fill="#E42D24" stroke="#1E1D85" stroke-width="2"/>
        <path d="M29.3199 24.2H25.5999V29H16.4399V24.2H1.91992V18.2L13.7999 1H23.4799L12.9199 16.88H16.7199V12.6H25.5999V16.88H29.3199V24.2Z" stroke="#1E1D85" stroke-width="2"/>
    </symbol>

    <symbol id="about-number-5" viewBox="0 0 45 31" fill="none" xmlns="http://www.w3.org/2000/svg">
        <circle cx="39" cy="24" r="5" fill="#E42D24" stroke="#1E1D85" stroke-width="2"/>
        <path d="M14.6 10.88C18.52 10.88 21.4 11.7067 23.24 13.36C25.1066 14.9867 26.04 17.1333 26.04 19.8C26.04 21.56 25.5733 23.1867 24.64 24.68C23.7333 26.1467 22.32 27.3467 20.4 28.28C18.48 29.1867 16.0933 29.64 13.24 29.64C11.2666 29.64 9.29328 29.4267 7.31995 29C5.37328 28.5733 3.66662 27.9467 2.19995 27.12L5.39995 20.16C6.57328 20.8267 7.79995 21.3333 9.07995 21.68C10.3866 22.0267 11.6533 22.2 12.88 22.2C13.9733 22.2 14.8533 22.0133 15.52 21.64C16.2133 21.24 16.56 20.6933 16.56 20C16.56 19.3333 16.2533 18.84 15.64 18.52C15.0266 18.1733 13.92 18 12.32 18H4.19995L5.59995 1H24.2V8.12H13.36L13.16 10.88H14.6Z" stroke="#1E1D85" stroke-width="2"/>
    </symbol>

    <symbol id="about-number-6" viewBox="0 0 44 32" fill="none" xmlns="http://www.w3.org/2000/svg">
        <circle cx="38" cy="25" r="5" fill="#E42D24" stroke="#1E1D85" stroke-width="2"/>
        <path d="M16.3599 11.8804C18.0666 11.8804 19.6532 12.2537 21.1199 13.0004C22.5866 13.747 23.7599 14.8004 24.6399 16.1604C25.5199 17.5204 25.9599 19.0804 25.9599 20.8404C25.9599 22.787 25.4532 24.507 24.4399 26.0004C23.4532 27.4937 22.0932 28.6404 20.3599 29.4404C18.6266 30.2404 16.7066 30.6404 14.5999 30.6404C11.9066 30.6404 9.54658 30.1204 7.51991 29.0804C5.51991 28.0404 3.95991 26.4937 2.83991 24.4404C1.71991 22.387 1.15991 19.867 1.15991 16.8804C1.15991 13.6804 1.79991 10.907 3.07991 8.56035C4.38658 6.21369 6.19991 4.42702 8.51991 3.20035C10.8666 1.97368 13.5866 1.36035 16.6799 1.36035C18.3599 1.36035 19.9599 1.56035 21.4799 1.96035C22.9999 2.33368 24.2932 2.86702 25.3599 3.56035L21.9599 10.1604C20.5732 9.17368 18.8799 8.68035 16.8799 8.68035C15.2532 8.68035 13.9066 9.09368 12.8399 9.92035C11.7999 10.7204 11.1199 11.8937 10.7999 13.4404C12.2666 12.4004 14.1199 11.8804 16.3599 11.8804ZM13.9599 24.1204C14.8132 24.1204 15.5066 23.867 16.0399 23.3604C16.5732 22.8537 16.8399 22.1604 16.8399 21.2804C16.8399 20.4004 16.5732 19.707 16.0399 19.2004C15.5066 18.667 14.8132 18.4004 13.9599 18.4004C13.1066 18.4004 12.4132 18.667 11.8799 19.2004C11.3466 19.707 11.0799 20.4004 11.0799 21.2804C11.0799 22.1604 11.3466 22.8537 11.8799 23.3604C12.4132 23.867 13.1066 24.1204 13.9599 24.1204Z" stroke="#1E1D85" stroke-width="2"/>
    </symbol>

</svg>