<svg width="66" height="66" viewBox="0 0 66 66" fill="none" xmlns="http://www.w3.org/2000/svg">
<path d="M40.2635 47.2635C43.4801 44.0468 45.6706 39.9486 46.5581 35.4871C47.4455 31.0255 46.99 26.401 45.2492 22.1983C43.5084 17.9956 40.5604 14.4035 36.7781 11.8762C32.9958 9.34893 28.549 8 24 8C19.451 8 15.0042 9.34893 11.2219 11.8762C7.43955 14.4035 4.49159 17.9956 2.75077 22.1983C1.00996 26.401 0.554478 31.0255 1.44194 35.4871C2.3294 39.9486 4.51994 44.0468 7.73654 47.2635" stroke="#1E1D85" stroke-width="2" stroke-linecap="round"/>
<path d="M22.5792 34.7392C23.5709 35.116 24.6716 35.0834 25.6393 34.6487C26.607 34.2139 27.3623 33.4125 27.7392 32.4208C28.116 31.4291 28.0834 30.3284 27.6487 29.3607C27.2139 28.393 26.4125 27.6377 25.4208 27.2608C24.4291 26.884 23.3284 26.9166 22.3607 27.3513C21.393 27.7861 20.6377 28.5875 20.2608 29.5792C19.884 30.5709 19.9166 31.6716 20.3513 32.6393C20.7861 33.607 21.5875 34.3623 22.5792 34.7392Z" stroke="#1E1D85" stroke-width="2" stroke-linecap="round"/>
<path d="M24 58C24 58 31 54.4444 31 49.0123V42.9877C31 42.9877 26.9741 42 24 42C21.0259 42 17 42.9877 17 42.9877V49.0123C17 54 24 58 24 58Z" fill="#E42D24" stroke="#1E1D85" stroke-width="2" stroke-linecap="round" stroke-linejoin="round"/>
<path d="M26.4677 27.7323L40.3878 24.5305L27.7928 32.5149" stroke="#1E1D85" stroke-width="2" stroke-linecap="round" stroke-linejoin="round"/>
<path d="M24 13.906V12M6.9 31H5M43 31H41.1M37.435 17.5229L36.0915 18.8706M10.5649 17.5228L11.9084 18.8705" stroke="#1E1D85" stroke-width="2" stroke-linecap="round" stroke-linejoin="round"/>
</svg>
