<svg width="44" height="44" viewBox="0 0 44 44" fill="none" xmlns="http://www.w3.org/2000/svg">
<path fill-rule="evenodd" clip-rule="evenodd" d="M23.277 1.45381C22.5332 0.848731 21.4668 0.84873 20.723 1.45381L17.9545 3.70595C17.5072 4.06984 16.9258 4.22561 16.3565 4.13413L12.8328 3.56798C11.8861 3.41587 10.9626 3.94905 10.621 4.84497L9.34946 8.17964C9.14401 8.71845 8.71845 9.14401 8.17964 9.34946L4.84497 10.621C3.94905 10.9626 3.41587 11.8861 3.56798 12.8328L4.13413 16.3565C4.22561 16.9258 4.06984 17.5072 3.70595 17.9545L1.45381 20.723C0.848731 21.4668 0.84873 22.5332 1.45381 23.277L3.70595 26.0455C4.06984 26.4928 4.22561 27.0742 4.13413 27.6435L3.56798 31.1672C3.41587 32.1139 3.94905 33.0374 4.84497 33.379L8.17964 34.6505C8.71845 34.856 9.14401 35.2816 9.34946 35.8204L10.621 39.155C10.9626 40.0509 11.8861 40.5841 12.8328 40.432L16.3565 39.8659C16.9258 39.7744 17.5072 39.9302 17.9545 40.2941L20.723 42.5462C21.4668 43.1513 22.5332 43.1513 23.277 42.5462L26.0455 40.2941C26.4928 39.9302 27.0742 39.7744 27.6435 39.8659L31.1672 40.432C32.1139 40.5841 33.0374 40.0509 33.379 39.155L34.6505 35.8204C34.856 35.2816 35.2816 34.856 35.8204 34.6505L39.155 33.379C40.0509 33.0374 40.5841 32.1139 40.432 31.1672L39.8659 27.6435C39.7744 27.0742 39.9302 26.4928 40.2941 26.0455L42.5462 23.277C43.1513 22.5332 43.1513 21.4668 42.5462 20.723L40.2941 17.9545C39.9302 17.5072 39.7744 16.9258 39.8659 16.3565L40.432 12.8328C40.5841 11.8861 40.0509 10.9626 39.155 10.621L35.8204 9.34946C35.2816 9.14401 34.856 8.71845 34.6505 8.17964L33.379 4.84497C33.0374 3.94905 32.1139 3.41587 31.1672 3.56798L27.6435 4.13413C27.0742 4.22561 26.4928 4.06984 26.0455 3.70595L23.277 1.45381ZM22 36.8397C30.1957 36.8397 36.8397 30.1957 36.8397 22C36.8397 13.8043 30.1957 7.16031 22 7.16031C13.8043 7.16031 7.16031 13.8043 7.16031 22C7.16031 30.1957 13.8043 36.8397 22 36.8397Z" stroke="white" stroke-width="2"/>
<path d="M25.18 20.4168C26.5391 20.7524 27.5793 21.3648 28.3008 22.254C29.0391 23.1265 29.4082 24.1836 29.4082 25.4252C29.4082 26.4822 29.1146 27.4722 28.5273 28.395C27.9569 29.301 27.0676 30.0393 25.8595 30.6097C24.6515 31.1802 23.1498 31.4654 21.3545 31.4654C20.1129 31.4654 18.8713 31.3312 17.6297 31.0628C16.4048 30.7943 15.331 30.4 14.4082 29.8799L16.4216 25.5007C17.1431 25.9201 17.9149 26.2389 18.7371 26.4571C19.576 26.6752 20.3814 26.7842 21.1532 26.7842C21.8411 26.7842 22.3948 26.6668 22.8142 26.4319C23.2337 26.197 23.4434 25.8614 23.4434 25.4252C23.4434 24.6198 22.7471 24.2171 21.3545 24.2171H19.0139V20.5678L21.6062 17.9252H15.3142V13.4453H28.4518V17.0946L25.18 20.4168Z" fill="#E42D24" stroke="white" stroke-width="2"/>
</svg>
