<svg width="86" height="86" viewBox="0 0 86 86" fill="none" xmlns="http://www.w3.org/2000/svg">
<circle cx="43" cy="43" r="42" stroke="white" stroke-width="2"/>
<circle cx="43" cy="43" r="34" fill="#918CFF" stroke="white" stroke-width="2"/>
<path d="M44.5165 59.4598C41.2658 59.4598 38.3218 58.7545 35.6845 57.3438C33.0778 55.9025 31.0232 53.9245 29.5205 51.4098C28.0485 48.8952 27.3125 46.0585 27.3125 42.8998C27.3125 39.7412 28.0638 36.9045 29.5665 34.3898C31.0692 31.8752 33.1238 29.9125 35.7305 28.5018C38.3678 27.0605 41.3118 26.3398 44.5625 26.3398C47.1998 26.3398 49.6072 26.7998 51.7845 27.7198C53.9618 28.6398 55.8018 29.9738 57.3045 31.7218L53.4405 35.3558C51.1098 32.8412 48.2425 31.5838 44.8385 31.5838C42.6305 31.5838 40.6525 32.0745 38.9045 33.0558C37.1565 34.0065 35.7918 35.3405 34.8105 37.0578C33.8292 38.7752 33.3385 40.7225 33.3385 42.8998C33.3385 45.0772 33.8292 47.0245 34.8105 48.7418C35.7918 50.4592 37.1565 51.8085 38.9045 52.7898C40.6525 53.7405 42.6305 54.2158 44.8385 54.2158C48.2425 54.2158 51.1098 52.9432 53.4405 50.3978L57.3045 54.0778C55.8018 55.8258 53.9465 57.1598 51.7385 58.0798C49.5612 58.9998 47.1538 59.4598 44.5165 59.4598Z" fill="white"/>
<circle cx="70" cy="70" r="15" fill="#918CFF" stroke="white" stroke-width="2"/>
<path d="M72.6259 72.5519H67.2979L66.3079 74.9999H62.6719L68.2339 62.3999H71.7439L77.3239 74.9999H73.6159L72.6259 72.5519ZM71.5819 69.9239L69.9619 65.8919L68.3419 69.9239H71.5819Z" fill="white"/>
</svg>
