<svg width="86" height="86" viewBox="0 0 86 86" fill="none" xmlns="http://www.w3.org/2000/svg">
<circle cx="43" cy="43" r="42" stroke="white" stroke-width="2"/>
<circle cx="43" cy="43" r="34" fill="#E42D24" stroke="white" stroke-width="2"/>
<path d="M52.568 58.9998L45.99 49.5698C45.714 49.6005 45.3 49.6158 44.748 49.6158H37.48V58.9998H31.5V26.7998H44.748C47.5387 26.7998 49.9613 27.2598 52.016 28.1798C54.1013 29.0998 55.696 30.4185 56.8 32.1358C57.904 33.8531 58.456 35.8925 58.456 38.2538C58.456 40.6765 57.858 42.7618 56.662 44.5098C55.4967 46.2578 53.81 47.5611 51.602 48.4198L59.008 58.9998H52.568ZM52.43 38.2538C52.43 36.1991 51.7553 34.6198 50.406 33.5158C49.0567 32.4118 47.0787 31.8598 44.472 31.8598H37.48V44.6938H44.472C47.0787 44.6938 49.0567 44.1418 50.406 43.0378C51.7553 41.9031 52.43 40.3085 52.43 38.2538Z" fill="white"/>
</svg>
