<svg width="44" height="44" viewBox="0 0 44 44" fill="none" xmlns="http://www.w3.org/2000/svg">
<circle cx="22" cy="22" r="21" stroke="#1E1D85" stroke-width="2"/>
<circle cx="22" cy="22" r="17" fill="#918CFF" stroke="#1E1D85" stroke-width="2"/>
<path d="M10.8516 16.5001H12.8016V27.0001H10.8516V16.5001Z" fill="white"/>
<path d="M14.8916 16.5001H19.4816C20.6016 16.5001 21.5966 16.7201 22.4666 17.1601C23.3366 17.5901 24.0116 18.2051 24.4916 19.0051C24.9716 19.7951 25.2116 20.7101 25.2116 21.7501C25.2116 22.7901 24.9716 23.7101 24.4916 24.5101C24.0116 25.3001 23.3366 25.9151 22.4666 26.3551C21.5966 26.7851 20.6016 27.0001 19.4816 27.0001H14.8916V16.5001ZM19.3916 25.3501C20.1616 25.3501 20.8366 25.2051 21.4166 24.9151C22.0066 24.6151 22.4566 24.1951 22.7666 23.6551C23.0866 23.1051 23.2466 22.4701 23.2466 21.7501C23.2466 21.0301 23.0866 20.4001 22.7666 19.8601C22.4566 19.3101 22.0066 18.8901 21.4166 18.6001C20.8366 18.3001 20.1616 18.1501 19.3916 18.1501H16.8416V25.3501H19.3916Z" fill="white"/>
<path d="M29.7892 27.1501C28.9792 27.1501 28.1942 27.0351 27.4342 26.8051C26.6842 26.5751 26.0892 26.2701 25.6492 25.8901L26.3242 24.3751C26.7542 24.7151 27.2792 24.9951 27.8992 25.2151C28.5292 25.4251 29.1592 25.5301 29.7892 25.5301C30.5692 25.5301 31.1492 25.4051 31.5292 25.1551C31.9192 24.9051 32.1142 24.5751 32.1142 24.1651C32.1142 23.8651 32.0042 23.6201 31.7842 23.4301C31.5742 23.2301 31.3042 23.0751 30.9742 22.9651C30.6442 22.8551 30.1942 22.7301 29.6242 22.5901C28.8242 22.4001 28.1742 22.2101 27.6742 22.0201C27.1842 21.8301 26.7592 21.5351 26.3992 21.1351C26.0492 20.7251 25.8742 20.1751 25.8742 19.4851C25.8742 18.9051 26.0292 18.3801 26.3392 17.9101C26.6592 17.4301 27.1342 17.0501 27.7642 16.7701C28.4042 16.4901 29.1842 16.3501 30.1042 16.3501C30.7442 16.3501 31.3742 16.4301 31.9942 16.5901C32.6142 16.7501 33.1492 16.9801 33.5992 17.2801L32.9842 18.7951C32.5242 18.5251 32.0442 18.3201 31.5442 18.1801C31.0442 18.0401 30.5592 17.9701 30.0892 17.9701C29.3192 17.9701 28.7442 18.1001 28.3642 18.3601C27.9942 18.6201 27.8092 18.9651 27.8092 19.3951C27.8092 19.6951 27.9142 19.9401 28.1242 20.1301C28.3442 20.3201 28.6192 20.4701 28.9492 20.5801C29.2792 20.6901 29.7292 20.8151 30.2992 20.9551C31.0792 21.1351 31.7192 21.3251 32.2192 21.5251C32.7192 21.7151 33.1442 22.0101 33.4942 22.4101C33.8542 22.8101 34.0342 23.3501 34.0342 24.0301C34.0342 24.6101 33.8742 25.1351 33.5542 25.6051C33.2442 26.0751 32.7692 26.4501 32.1292 26.7301C31.4892 27.0101 30.7092 27.1501 29.7892 27.1501Z" fill="white"/>
</svg>
