<svg width="44" height="44" viewBox="0 0 44 44" fill="none" xmlns="http://www.w3.org/2000/svg">
<circle cx="22" cy="22" r="21" stroke="#1E1D85" stroke-width="2"/>
<circle cx="22" cy="22" r="17" fill="#E42D24" stroke="#1E1D85" stroke-width="2"/>
<path d="M12.6089 18.1501H9.12891V16.5001H18.0389V18.1501H14.5589V27.0001H12.6089V18.1501Z" fill="white"/>
<path d="M18.7523 16.5001H20.7023V25.3501H26.1923V27.0001H18.7523V16.5001Z" fill="white"/>
<path d="M30.1636 27.1501C29.3536 27.1501 28.5686 27.0351 27.8086 26.8051C27.0586 26.5751 26.4636 26.2701 26.0236 25.8901L26.6986 24.3751C27.1286 24.7151 27.6536 24.9951 28.2736 25.2151C28.9036 25.4251 29.5336 25.5301 30.1636 25.5301C30.9436 25.5301 31.5236 25.4051 31.9036 25.1551C32.2936 24.9051 32.4886 24.5751 32.4886 24.1651C32.4886 23.8651 32.3786 23.6201 32.1586 23.4301C31.9486 23.2301 31.6786 23.0751 31.3486 22.9651C31.0186 22.8551 30.5686 22.7301 29.9986 22.5901C29.1986 22.4001 28.5486 22.2101 28.0486 22.0201C27.5586 21.8301 27.1336 21.5351 26.7736 21.1351C26.4236 20.7251 26.2486 20.1751 26.2486 19.4851C26.2486 18.9051 26.4036 18.3801 26.7136 17.9101C27.0336 17.4301 27.5086 17.0501 28.1386 16.7701C28.7786 16.4901 29.5586 16.3501 30.4786 16.3501C31.1186 16.3501 31.7486 16.4301 32.3686 16.5901C32.9886 16.7501 33.5236 16.9801 33.9736 17.2801L33.3586 18.7951C32.8986 18.5251 32.4186 18.3201 31.9186 18.1801C31.4186 18.0401 30.9336 17.9701 30.4636 17.9701C29.6936 17.9701 29.1186 18.1001 28.7386 18.3601C28.3686 18.6201 28.1836 18.9651 28.1836 19.3951C28.1836 19.6951 28.2886 19.9401 28.4986 20.1301C28.7186 20.3201 28.9936 20.4701 29.3236 20.5801C29.6536 20.6901 30.1036 20.8151 30.6736 20.9551C31.4536 21.1351 32.0936 21.3251 32.5936 21.5251C33.0936 21.7151 33.5186 22.0101 33.8686 22.4101C34.2286 22.8101 34.4086 23.3501 34.4086 24.0301C34.4086 24.6101 34.2486 25.1351 33.9286 25.6051C33.6186 26.0751 33.1436 26.4501 32.5036 26.7301C31.8636 27.0101 31.0836 27.1501 30.1636 27.1501Z" fill="white"/>
</svg>
