<svg width="58" height="53" viewBox="0 0 58 53" fill="none" xmlns="http://www.w3.org/2000/svg">
<path d="M4 49.4449V45H54V49.4449C53.9991 50.1223 53.6518 50.7718 53.0342 51.2509C52.4166 51.7299 51.5793 51.9993 50.7059 52H7.29412C6.42073 51.9993 5.58337 51.7299 4.96579 51.2509C4.34821 50.7718 4.00087 50.1223 4 49.4449Z" fill="#E42D24"/>
<path d="M36 28H53.7059C54.5793 28.0009 55.4166 28.3473 56.0342 28.9632C56.6518 29.5791 56.9991 30.4141 57 31.2851V42.7149C56.9991 43.5859 56.6518 44.4209 56.0342 45.0368C55.4166 45.6527 54.8734 45.9991 54 46M36 28V22.1939C36.0456 19.9496 36.294 17.7605 37.4972 15.8634C38.7074 13.836 39.1448 11.4416 38.7292 9.11887C38.3136 6.79609 37.0728 4.70038 35.2341 3.21557C33.9068 2.13645 32.3209 1.42003 30.6322 1.1366C28.9434 0.853172 27.2098 1.01248 25.6014 1.59888C23.993 2.18529 22.5652 3.17865 21.4579 4.48148C20.3507 5.78431 19.6021 7.35185 19.2856 9.03028C18.8317 11.3889 19.2707 13.8317 20.5176 15.8864C21.7 17.7207 21.9433 19.8432 22 22.023V28M36 28H22M22 28H4.29412C3.42073 28.0009 2.58337 28.3473 1.96579 28.9632C1.34821 29.5791 1.00087 30.4141 1 31.2851V42.7149C1.00087 43.5859 1.34821 44.4209 1.96579 45.0368C2.58337 45.6527 3.12661 45.9991 4 46M4 46V48.7149C4.00087 49.5859 4.34821 50.4209 4.96579 51.0368C5.58337 51.6527 6.42073 51.9991 7.29412 52H50.7059C51.5793 51.9991 52.4166 51.6527 53.0342 51.0368C53.6518 50.4209 53.9991 49.5859 54 48.7149V46M4 46H54" stroke="#1E1D85" stroke-width="2"/>
<path d="M22 24H36" stroke="#1E1D85" stroke-width="2" stroke-linejoin="round"/>
<path d="M11 35H47M20 39H38" stroke="#1E1D85" stroke-width="2" stroke-linecap="round" stroke-linejoin="round"/>
</svg>
