<svg width="62" height="46" viewBox="0 0 62 46" fill="none" xmlns="http://www.w3.org/2000/svg">
<path d="M1.00009 4C1.00009 2.34315 2.34324 1 4.00009 1H19.4723L24.3334 5H61.0001V9H1.00009V4Z" fill="#E42D24"/>
<path d="M1.00009 4C1.00009 2.34315 2.34324 1 4.00009 1H19.4723L24.3334 5H61.0001V41C61.0001 43.2091 59.2092 45 57.0001 45H5.00009C2.79095 45 1.00009 43.2091 1.00009 41V4Z" stroke="#1E1D85" stroke-width="2" stroke-linejoin="round"/>
<rect x="9.00009" y="17" width="44" height="4" rx="1" stroke="#1E1D85" stroke-width="2"/>
<path d="M45.0001 25H9.00009M37.0001 33H9.00009M31.0001 29H9.00009M31.0001 37H9.00009" stroke="#1E1D85" stroke-width="2" stroke-linecap="round"/>
<path d="M61.0001 9.00001L1.00009 9" stroke="#1E1D85" stroke-width="2" stroke-linecap="round"/>
</svg>
