<svg width="45" height="31" viewBox="0 0 45 31" fill="none" xmlns="http://www.w3.org/2000/svg">
<circle cx="39" cy="24" r="5" fill="#E42D24" stroke="#1E1D85" stroke-width="2"/>
<path d="M14.6 10.88C18.52 10.88 21.4 11.7067 23.24 13.36C25.1066 14.9867 26.04 17.1333 26.04 19.8C26.04 21.56 25.5733 23.1867 24.64 24.68C23.7333 26.1467 22.32 27.3467 20.4 28.28C18.48 29.1867 16.0933 29.64 13.24 29.64C11.2666 29.64 9.29328 29.4267 7.31995 29C5.37328 28.5733 3.66662 27.9467 2.19995 27.12L5.39995 20.16C6.57328 20.8267 7.79995 21.3333 9.07995 21.68C10.3866 22.0267 11.6533 22.2 12.88 22.2C13.9733 22.2 14.8533 22.0133 15.52 21.64C16.2133 21.24 16.56 20.6933 16.56 20C16.56 19.3333 16.2533 18.84 15.64 18.52C15.0266 18.1733 13.92 18 12.32 18H4.19995L5.59995 1H24.2V8.12H13.36L13.16 10.88H14.6Z" stroke="#1E1D85" stroke-width="2"/>
</svg>
