<svg width="44" height="44" viewBox="0 0 44 44" fill="none" xmlns="http://www.w3.org/2000/svg">
<circle cx="22" cy="22" r="21" stroke="#1E1D85" stroke-width="2"/>
<circle cx="22" cy="22" r="17" fill="#918CFF" stroke="#1E1D85" stroke-width="2"/>
<circle cx="35.5" cy="35.5" r="7.5" fill="#918CFF" stroke="#1E1D85" stroke-width="2"/>
<path d="M22.7583 30.2299C21.1329 30.2299 19.6609 29.8773 18.3423 29.1719C17.0389 28.4513 16.0116 27.4623 15.2603 26.2049C14.5243 24.9476 14.1562 23.5293 14.1562 21.9499C14.1562 20.3706 14.5319 18.9523 15.2832 17.6949C16.0346 16.4376 17.0619 15.4563 18.3653 14.7509C19.6839 14.0303 21.1559 13.6699 22.7813 13.6699C24.0999 13.6699 25.3036 13.8999 26.3923 14.3599C27.4809 14.8199 28.4009 15.4869 29.1523 16.3609L27.2203 18.1779C26.0549 16.9206 24.6213 16.2919 22.9193 16.2919C21.8153 16.2919 20.8263 16.5373 19.9523 17.0279C19.0782 17.5033 18.3959 18.1703 17.9053 19.0289C17.4146 19.8876 17.1693 20.8613 17.1693 21.9499C17.1693 23.0386 17.4146 24.0123 17.9053 24.8709C18.3959 25.7296 19.0782 26.4043 19.9523 26.8949C20.8263 27.3703 21.8153 27.6079 22.9193 27.6079C24.6213 27.6079 26.0549 26.9716 27.2203 25.6989L29.1523 27.5389C28.4009 28.4129 27.4733 29.0799 26.3693 29.5399C25.2806 29.9999 24.0769 30.2299 22.7583 30.2299Z" fill="white"/>
<path d="M37.5239 38.5002L37.5059 35.1612L35.8859 37.8792H35.0939L33.4829 35.2512V38.5002H31.8359V32.2002H33.3029L35.5169 35.8362L37.6769 32.2002H39.1439L39.1619 38.5002H37.5239Z" fill="white"/>
</svg>
