<svg width="44" height="44" viewBox="0 0 44 44" fill="none" xmlns="http://www.w3.org/2000/svg">
<circle cx="22" cy="22" r="21" stroke="#1E1D85" stroke-width="2"/>
<circle cx="22" cy="22" r="17" fill="#E42D24" stroke="#1E1D85" stroke-width="2"/>
<path d="M23.1019 23.5875H29.1019V21.1875H23.1019V23.5875Z" fill="white"/>
<path d="M29.1019 21.7659H26.2729V26.7799C25.3222 27.3319 24.2182 27.6079 22.9609 27.6079C21.8416 27.6079 20.8372 27.3626 19.9479 26.8719C19.0739 26.3813 18.3839 25.7066 17.8779 24.8479C17.3872 23.9893 17.1419 23.0233 17.1419 21.9499C17.1419 20.8459 17.3872 19.8646 17.8779 19.0059C18.3839 18.1473 19.0739 17.4803 19.9479 17.0049C20.8372 16.5296 21.8492 16.2919 22.9839 16.2919C24.4211 16.2919 25.6842 16.7139 26.7732 17.5578L28.5305 15.5287C27.9436 15.0361 27.2754 14.6388 26.5259 14.3369C25.4219 13.8923 24.1952 13.6699 22.8459 13.6699C21.1899 13.6699 19.6949 14.0303 18.3609 14.7509C17.0422 15.4563 16.0072 16.4376 15.2559 17.6949C14.5046 18.9523 14.1289 20.3706 14.1289 21.9499C14.1289 23.5293 14.5046 24.9476 15.2559 26.2049C16.0072 27.4623 17.0422 28.4513 18.3609 29.1719C19.6796 29.8773 21.1592 30.2299 22.7999 30.2299C23.9652 30.2299 25.0999 30.0536 26.2039 29.7009C27.3079 29.3483 28.2739 28.8423 29.1019 28.1829V21.7659Z" fill="white"/>
</svg>
