<svg width="44" height="44" viewBox="0 0 44 44" fill="none" xmlns="http://www.w3.org/2000/svg">
<circle cx="22" cy="22" r="21" stroke="#1E1D85" stroke-width="2"/>
<circle cx="22" cy="22" r="17" fill="#E42D24" stroke="#1E1D85" stroke-width="2"/>
<path d="M26.784 29.9999L23.495 25.2849C23.357 25.3002 23.15 25.3079 22.874 25.3079H19.24V29.9999H16.25V13.8999H22.874C24.2693 13.8999 25.4807 14.1299 26.508 14.5899C27.5507 15.0499 28.348 15.7092 28.9 16.5679C29.452 17.4266 29.728 18.4462 29.728 19.6269C29.728 20.8382 29.429 21.8809 28.831 22.7549C28.2483 23.6289 27.405 24.2806 26.301 24.7099L30.004 29.9999H26.784ZM26.715 19.6269C26.715 18.5996 26.3777 17.8099 25.703 17.2579C25.0283 16.7059 24.0393 16.4299 22.736 16.4299H19.24V22.8469H22.736C24.0393 22.8469 25.0283 22.5709 25.703 22.0189C26.3777 21.4516 26.715 20.6542 26.715 19.6269Z" fill="white"/>
</svg>
