<svg width="17" height="14" viewBox="0 0 17 14" fill="none" xmlns="http://www.w3.org/2000/svg">
<path d="M13 1H14C15.1046 1 16 1.89543 16 3V11C16 12.1046 15.1046 13 14 13H13M13 1H3C1.89543 1 1 1.89543 1 3V11C1 12.1046 1.89543 13 3 13H13" stroke="#7470E0"/>
<rect x="3" y="3" width="2" height="8" rx="0.5" stroke="#7470E0"/>
<path d="M7.5 4.5H8.5V5.5H7.5V4.5Z" fill="#7470E0"/>
<path d="M9.5 4.5H10.5V5.5H9.5V4.5Z" fill="#7470E0"/>
<path d="M11.5 4.5H12.5V5.5H11.5V4.5Z" fill="#7470E0"/>
<path d="M7.5 6.5H8.5V7.5H7.5V6.5Z" fill="#7470E0"/>
<path d="M9.5 6.5H10.5V7.5H9.5V6.5Z" fill="#7470E0"/>
<path d="M11.5 6.5H12.5V7.5H11.5V6.5Z" fill="#7470E0"/>
<path d="M7.5 8.5H8.5V9.5H7.5V8.5Z" fill="#7470E0"/>
<path d="M9.5 8.5H10.5V9.5H9.5V8.5Z" fill="#7470E0"/>
<path d="M11.5 8.5H12.5V9.5H11.5V8.5Z" fill="#7470E0"/>
</svg>
