<svg xmlns="http://www.w3.org/2000/svg" viewBox="0 0 25 25"><defs><style>.a{fill:red;}</style></defs><title>Ресурс 14</title><path class="a" d="M9.65,8.68a.75.75,0,0,1,.59-.5A7.5,7.5,0,0,1,11.48,8a11.75,11.75,0,0,1,1.67.08c.62.08.8.31.8,1s0,1.62,0,2.43a4.68,4.68,0,0,0,.09,1c.11.44.42.55.7.21A16.57,16.57,0,0,0,16,10.83,18.7,18.7,0,0,0,16.89,9c.2-.47.26-.52.76-.53l2.56,0c.76,0,1,.28.62,1s-.84,1.41-1.29,2.1c-.34.51-.73,1-1.08,1.5s-.35.82.12,1.31,1.07,1.08,1.58,1.65a6.4,6.4,0,0,1,.72,1,.54.54,0,0,1-.36.87A2.09,2.09,0,0,1,20,18q-1.1,0-2.19,0a1.9,1.9,0,0,1-1.37-.67c-.35-.37-.68-.76-1-1.14a2.81,2.81,0,0,0-.45-.4.46.46,0,0,0-.76.18A3.92,3.92,0,0,0,14,17.12c-.06.72-.2.85-.91.88a6,6,0,0,1-3.85-1A9.07,9.07,0,0,1,7,14.59a32.51,32.51,0,0,1-2.9-5.43c-.18-.41-.07-.63.37-.66s1,0,1.53,0H6.8A.81.81,0,0,1,7.64,9a14.8,14.8,0,0,0,1.7,3.19,3.09,3.09,0,0,0,.48.54c.33.29.61.21.72-.22a4.14,4.14,0,0,0,.14-1c0-.62,0-1.24-.06-1.85a1,1,0,0,0-.84-1l-.11,0Z"/><path class="a" d="M24,1V24H1V1H24m1-1H0V25H25V0Z"/></svg>