<svg xmlns="http://www.w3.org/2000/svg" viewBox="0 0 25 25"><defs><style>.a{fill:#ccc;}</style></defs><path class="a" d="M24,1V24H1V1H24m1-1H0V25H25V0Z"/><path class="a" d="M19,5.32a2.77,2.77,0,0,0-1.45.34s-11.92,5-12.19,5.13a2.56,2.56,0,0,0-1.72,1.27,1.51,1.51,0,0,0,1.16,1.72c.28.09,2.82.92,2.85,1l1,3.13c.2.71.46,1.59,1.35,1.59h0a1.66,1.66,0,0,0,1-.59l1.32-1.21,2.4,1.85a1.84,1.84,0,0,0,1.38.56l.37,0h0a1.64,1.64,0,0,0,1.2-1.46c.05-.26,2.05-10.5,2.09-10.69C20,7,20.3,5.65,19,5.32ZM10.69,15l5.52-5.14a3.91,3.91,0,0,0,.57-.58l0,0v0c0-.2,0-.34-.11-.41s-.55.08-1,.37l-6.78,4.2-.13.07-.06.06c-.19-.08-2.87-1-3.19-1.08L18.41,7c-.31,1.56-2.28,11.57-2.28,11.57h0c-.16,0-3.69-2.76-3.69-2.76a.2.2,0,0,0-.14-.06c-.16,0-.57.42-.6.44l-1.42,1.3C10.31,17.2,10.54,15.51,10.69,15Z"/></svg>