<?xml version="1.0" encoding="utf-8"?>
<!-- Generator: Adobe Illustrator 24.2.1, SVG Export Plug-In . SVG Version: 6.00 Build 0)  -->
<svg version="1.1" id="Слой_1" xmlns="http://www.w3.org/2000/svg" xmlns:xlink="http://www.w3.org/1999/xlink" x="0px" y="0px"
	 viewBox="0 0 13 11" style="enable-background:new 0 0 13 11;" xml:space="preserve">
<style type="text/css">
	.st0{fill-rule:evenodd;clip-rule:evenodd;fill:#666666;}
</style>
<path class="st0" d="M12.9,4.4c-0.1,0.1-0.2,0.1-0.3,0.1c-0.1,0-0.2,0-0.3-0.1l-1.3-1.3L6.2,7.9c0,0-0.1,0.1-0.2,0.1
	c-0.1,0-0.1,0-0.2-0.1L5,7C4.9,7,4.9,6.8,5,6.7c0,0,0,0,0,0L9.8,2L8.5,0.8c-0.2-0.2-0.2-0.5,0-0.6C8.6,0,8.7,0,8.8,0h3.7
	c0.1,0,0.2,0,0.3,0.1C12.9,0.2,13,0.3,13,0.5v3.7C13,4.2,12.9,4.4,12.9,4.4z M7.2,1.8H2.1c-0.3,0-0.6,0.1-0.8,0.3
	C1,2.4,0.9,2.7,0.9,3v6c0,0.3,0.1,0.6,0.3,0.8c0.2,0.2,0.5,0.3,0.8,0.3h6c0.3,0,0.6-0.1,0.8-0.3c0.2-0.2,0.4-0.5,0.3-0.8V6.6
	c0-0.1,0-0.1,0.1-0.2c0,0,0.1-0.1,0.2-0.1H10c0.1,0,0.1,0,0.2,0.1c0,0,0.1,0.1,0.1,0.2v2.3c0,0.5-0.2,1.1-0.6,1.5
	C9.2,10.8,8.7,11,8.1,11h-6c-0.6,0-1.1-0.2-1.5-0.6C0.2,10,0,9.5,0,8.9V3c0-0.5,0.2-1.1,0.6-1.5C1,1.1,1.5,0.9,2.1,0.9h5.1
	c0.1,0,0.1,0,0.2,0.1c0,0,0.1,0.1,0.1,0.2v0.5c0,0.1,0,0.1-0.1,0.2C7.3,1.8,7.3,1.8,7.2,1.8z"/>
</svg>
