<svg width="86" height="86" viewBox="0 0 86 86" fill="none" xmlns="http://www.w3.org/2000/svg">
<circle cx="43" cy="43" r="42" stroke="white" stroke-width="2"/>
<circle cx="43" cy="43" r="34" fill="#918CFF" stroke="white" stroke-width="2"/>
<path d="M23.1465 29.0001H28.3465V52.6001H42.9865V57.0001H23.1465V29.0001Z" fill="white"/>
<path d="M65.3718 52.6001V57.0001H44.7318V53.5201L55.8518 42.9601C57.1051 41.7601 57.9451 40.7201 58.3718 39.8401C58.8251 38.9334 59.0518 38.0401 59.0518 37.1601C59.0518 35.8534 58.6118 34.8534 57.7318 34.1601C56.8518 33.4668 55.5585 33.1201 53.8518 33.1201C50.9985 33.1201 48.8118 34.0934 47.2918 36.0401L43.6518 33.2401C44.7451 31.7734 46.2118 30.6401 48.0518 29.8401C49.9185 29.0134 51.9985 28.6001 54.2918 28.6001C57.3318 28.6001 59.7585 29.3201 61.5718 30.7601C63.3851 32.2001 64.2918 34.1601 64.2918 36.6401C64.2918 38.1601 63.9718 39.5868 63.3318 40.9201C62.6918 42.2534 61.4651 43.7734 59.6518 45.4801L52.1718 52.6001H65.3718Z" fill="white"/>
</svg>
