<svg width="86" height="86" viewBox="0 0 86 86" fill="none" xmlns="http://www.w3.org/2000/svg">
<circle cx="43" cy="43" r="42" stroke="white" stroke-width="2"/>
<circle cx="43" cy="43" r="34" fill="#918CFF" stroke="white" stroke-width="2"/>
<circle cx="70" cy="70" r="15" fill="#918CFF" stroke="white" stroke-width="2"/>
<path d="M56.066 53.9858V58.9998H31.916V26.7998H55.422V31.8138H37.896V40.1858H53.444V45.1078H37.896V53.9858H56.066Z" fill="white"/>
<path d="M70.8988 76.252C69.5788 76.252 68.3907 75.976 67.3348 75.424C66.2908 74.86 65.4688 74.08 64.8688 73.084C64.2688 72.0879 63.9688 70.9599 63.9688 69.6999C63.9688 68.4399 64.2688 67.3119 64.8688 66.3159C65.4688 65.3199 66.2908 64.5459 67.3348 63.9939C68.3907 63.4299 69.5788 63.1479 70.8988 63.1479C72.0508 63.1479 73.0887 63.3519 74.0127 63.7599C74.9368 64.1679 75.7048 64.7559 76.3168 65.5239L74.0488 67.5759C73.2328 66.5919 72.2428 66.0999 71.0788 66.0999C70.3948 66.0999 69.7828 66.2499 69.2428 66.5499C68.7148 66.8499 68.3008 67.2759 68.0008 67.8279C67.7127 68.3679 67.5688 68.992 67.5688 69.6999C67.5688 70.4079 67.7127 71.0379 68.0008 71.5899C68.3008 72.1299 68.7148 72.5499 69.2428 72.8499C69.7828 73.15 70.3948 73.2999 71.0788 73.2999C72.2428 73.2999 73.2328 72.808 74.0488 71.8239L76.3168 73.8759C75.7048 74.6439 74.9368 75.2319 74.0127 75.6399C73.0887 76.0479 72.0508 76.252 70.8988 76.252Z" fill="white"/>
</svg>
