<svg width="44" height="44" viewBox="0 0 44 44" fill="none" xmlns="http://www.w3.org/2000/svg">
<circle cx="22" cy="22" r="21" stroke="#1E1D85" stroke-width="2"/>
<circle cx="22" cy="22" r="17" fill="#918CFF" stroke="#1E1D85" stroke-width="2"/>
<path d="M12.0742 14.9998H14.6742V26.7998H21.9942V28.9998H12.0742V14.9998Z" fill="white"/>
<path d="M33.1869 26.7998V28.9998H22.8669V27.2598L28.4269 21.9798C29.0535 21.3798 29.4735 20.8598 29.6869 20.4198C29.9135 19.9665 30.0269 19.5198 30.0269 19.0798C30.0269 18.4265 29.8069 17.9265 29.3669 17.5798C28.9269 17.2331 28.2802 17.0598 27.4269 17.0598C26.0002 17.0598 24.9069 17.5465 24.1469 18.5198L22.3269 17.1198C22.8735 16.3865 23.6069 15.8198 24.5269 15.4198C25.4602 15.0065 26.5002 14.7998 27.6469 14.7998C29.1669 14.7998 30.3802 15.1598 31.2869 15.8798C32.1935 16.5998 32.6469 17.5798 32.6469 18.8198C32.6469 19.5798 32.4869 20.2931 32.1669 20.9598C31.8469 21.6265 31.2335 22.3865 30.3269 23.2398L26.5869 26.7998H33.1869Z" fill="white"/>
</svg>
