<svg width="44" height="45" viewBox="0 0 44 45" fill="none" xmlns="http://www.w3.org/2000/svg">
<circle cx="22" cy="22.5" r="21" stroke="#1E1D85" stroke-width="2"/>
<circle cx="22" cy="22.5" r="17" fill="#918CFF" stroke="#1E1D85" stroke-width="2"/>
<circle cx="35.5" cy="36" r="7.5" fill="#918CFF" stroke="#1E1D85" stroke-width="2"/>
<path d="M28.532 27.9929V30.4999H16.457V14.3999H28.21V16.9069H19.447V21.0929H27.221V23.5539H19.447V27.9929H28.532Z" fill="white"/>
<path d="M35.9494 39.1262C35.2894 39.1262 34.6954 38.9882 34.1674 38.7122C33.6454 38.4302 33.2344 38.0402 32.9344 37.5422C32.6344 37.0442 32.4844 36.4802 32.4844 35.8502C32.4844 35.2202 32.6344 34.6562 32.9344 34.1582C33.2344 33.6602 33.6454 33.2732 34.1674 32.9972C34.6954 32.7152 35.2894 32.5742 35.9494 32.5742C36.5254 32.5742 37.0444 32.6762 37.5064 32.8802C37.9684 33.0842 38.3524 33.3782 38.6584 33.7622L37.5244 34.7882C37.1164 34.2962 36.6214 34.0502 36.0394 34.0502C35.6974 34.0502 35.3914 34.1252 35.1214 34.2752C34.8574 34.4252 34.6504 34.6382 34.5004 34.9142C34.3564 35.1842 34.2844 35.4962 34.2844 35.8502C34.2844 36.2042 34.3564 36.5192 34.5004 36.7952C34.6504 37.0652 34.8574 37.2752 35.1214 37.4252C35.3914 37.5752 35.6974 37.6502 36.0394 37.6502C36.6214 37.6502 37.1164 37.4042 37.5244 36.9122L38.6584 37.9382C38.3524 38.3222 37.9684 38.6162 37.5064 38.8202C37.0444 39.0242 36.5254 39.1262 35.9494 39.1262Z" fill="white"/>
</svg>
