<svg width="45" height="31" viewBox="0 0 45 31" fill="none" xmlns="http://www.w3.org/2000/svg">
<circle cx="39" cy="25" r="5" fill="#E42D24" stroke="#1E1D85" stroke-width="2"/>
<path d="M25.56 22.6804V30.0004H3.11998V24.2004L13.24 14.8404C14.12 14.0137 14.7066 13.307 15 12.7204C15.2933 12.1337 15.44 11.5604 15.44 11.0004C15.44 10.307 15.2 9.77368 14.72 9.40035C14.2666 9.00035 13.6 8.80035 12.72 8.80035C11.8666 8.80035 11.0666 9.02702 10.32 9.48035C9.57331 9.93369 8.99998 10.5737 8.59998 11.4004L1.47998 7.84035C2.54665 5.84035 4.10665 4.26702 6.15998 3.12035C8.21331 1.94702 10.6933 1.36035 13.6 1.36035C15.8133 1.36035 17.7733 1.72035 19.48 2.44035C21.1866 3.16035 22.52 4.18702 23.48 5.52035C24.44 6.85368 24.92 8.38702 24.92 10.1204C24.92 11.667 24.5866 13.1204 23.92 14.4804C23.28 15.8137 22.0133 17.3337 20.12 19.0404L16.12 22.6804H25.56Z" stroke="#1E1D85" stroke-width="2"/>
</svg>
