<svg width="24" height="24" viewBox="0 0 24 24" fill="none" xmlns="http://www.w3.org/2000/svg">
<path id="Vector (Stroke)" fill-rule="evenodd" clip-rule="evenodd" d="M11.9998 2C9.79067 2 7.99977 3.79086 7.99977 6C7.99977 8.20914 9.79067 10 11.9998 10C14.2089 10 15.9998 8.20914 15.9998 6C15.9998 3.79086 14.2089 2 11.9998 2ZM15.7637 10.6728C17.1274 9.57299 17.9998 7.88837 17.9998 6C17.9998 2.68628 15.3134 0 11.9998 0C8.68611 0 5.99977 2.68628 5.99977 6C5.99977 7.88837 6.87215 9.57299 8.23587 10.6728C5.2127 11.7916 2.77849 14.2175 1.50324 17.2819L1.49268 17.3073L0.81543 19.2257L1.39027 19.6676L1.99977 18.8748C1.39027 19.6676 1.39022 19.6676 1.39027 19.6676L1.39287 19.6696L1.39795 19.6735L1.41538 19.6867C1.43016 19.6979 1.45121 19.7138 1.478 19.7338C1.53156 19.7737 1.60824 19.8302 1.70392 19.8989C1.89485 20.036 2.16364 20.2233 2.47687 20.4253C5.25464 22.2164 8.51404 23.25 11.9998 23.25C15.4855 23.25 18.7449 22.2164 21.5227 20.4253C21.8359 20.2233 22.1047 20.036 22.2956 19.8989C22.3913 19.8302 22.468 19.7737 22.5215 19.7338C22.5483 19.7138 22.5694 19.6979 22.5842 19.6867L22.6016 19.6735L22.6067 19.6696L22.6083 19.6684L22.6091 19.6678C22.6091 19.6677 22.6093 19.6676 21.9998 18.8748L22.6091 19.6678L23.1841 19.2257L22.5069 17.3073L22.4963 17.2819C21.2211 14.2175 18.7869 11.7916 15.7637 10.6728ZM20.8069 18.4999L20.6395 18.0255C19.1365 14.4394 15.8085 12 11.9998 12C8.19104 12 4.86303 14.4394 3.36009 18.0255L3.19261 18.4999C3.3044 18.5763 3.42823 18.659 3.56071 18.7444C6.0314 20.3375 8.91711 21.25 11.9998 21.25C15.0824 21.25 17.9681 20.3375 20.4388 18.7444C20.5713 18.659 20.6952 18.5763 20.8069 18.4999Z" fill="white"/>
</svg>
