<svg width="16" height="15" viewBox="0 0 16 15" fill="none" xmlns="http://www.w3.org/2000/svg">
<path d="M13.3124 3.40844C15.2964 6.40024 14.4794 10.4339 11.4876 12.4179C8.49581 14.4019 4.46215 13.5849 2.47817 10.5931C0.494183 7.60128 1.31118 3.56762 4.30297 1.58363C7.29477 -0.400348 11.3284 0.416645 13.3124 3.40844Z" stroke="#7470E0"/>
<path d="M13.0721 2.6145C13.6489 2.42548 14.1312 2.31595 14.5113 2.27744C14.9042 2.23764 15.1299 2.27989 15.2375 2.33203C15.283 2.35407 15.2959 2.37217 15.2996 2.37785C15.3035 2.38384 15.3152 2.4041 15.3172 2.45646C15.3219 2.57796 15.2711 2.80514 15.0768 3.15648C14.6936 3.84938 13.8936 4.77565 12.7381 5.81895C11.5911 6.85466 10.1737 7.9338 8.6614 8.92062C7.14891 9.90756 5.61686 10.753 4.25682 11.3539C2.8824 11.9611 1.79245 12.2699 1.10004 12.2935C0.748583 12.3054 0.592418 12.2401 0.540118 12.201C0.521556 12.1871 0.515427 12.1767 0.510775 12.164C0.504532 12.147 0.494248 12.1042 0.504052 12.0211C0.52498 11.8439 0.626933 11.5697 0.861228 11.1964C1.0904 10.8312 1.42414 10.4056 1.86222 9.93152" stroke="#7470E0"/>
</svg>
