<svg width="16" height="13" viewBox="0 0 16 13" fill="none" xmlns="http://www.w3.org/2000/svg">
<path d="M12.5 0.5H13.5C14.6046 0.5 15.5 1.39543 15.5 2.5V10.5C15.5 11.6046 14.6046 12.5 13.5 12.5H12.5M12.5 0.5H2.5C1.39543 0.5 0.5 1.39543 0.5 2.5V10.5C0.5 11.6046 1.39543 12.5 2.5 12.5H12.5" stroke="#7470E0"/>
<rect x="2.5" y="2.5" width="2" height="8" rx="0.5" stroke="#7470E0"/>
<path d="M7 4H8V5H7V4Z" fill="#7470E0"/>
<path d="M9 4H10V5H9V4Z" fill="#7470E0"/>
<path d="M11 4H12V5H11V4Z" fill="#7470E0"/>
<path d="M7 6H8V7H7V6Z" fill="#7470E0"/>
<path d="M9 6H10V7H9V6Z" fill="#7470E0"/>
<path d="M11 6H12V7H11V6Z" fill="#7470E0"/>
<path d="M7 8H8V9H7V8Z" fill="#7470E0"/>
<path d="M9 8H10V9H9V8Z" fill="#7470E0"/>
<path d="M11 8H12V9H11V8Z" fill="#7470E0"/>
</svg>
