<svg width="59" height="35" viewBox="0 0 59 35" fill="none" xmlns="http://www.w3.org/2000/svg">
<path d="M16.75 33.9996L42.25 34C44.7353 34 46.75 26.6128 46.75 17.5002C46.75 8.38761 44.7353 1.0004 42.25 1.0004L16.75 1" stroke="white" stroke-width="2"/>
<ellipse cx="16.75" cy="17.5" rx="4.5" ry="16.5" fill="#E42D24" stroke="white" stroke-width="2"/>
<path d="M17 12C17.5523 12 18 11.5523 18 11C18 10.4477 17.5523 10 17 10V12ZM0.292893 10.2929C-0.0976311 10.6834 -0.0976311 11.3166 0.292893 11.7071L6.65685 18.0711C7.04738 18.4616 7.68054 18.4616 8.07107 18.0711C8.46159 17.6805 8.46159 17.0474 8.07107 16.6569L2.41421 11L8.07107 5.34315C8.46159 4.95262 8.46159 4.31946 8.07107 3.92893C7.68054 3.53841 7.04738 3.53841 6.65685 3.92893L0.292893 10.2929ZM17 10H1V12H17V10Z" fill="white"/>
<path d="M17 24H5" stroke="white" stroke-width="2" stroke-linecap="round" stroke-linejoin="round"/>
<path d="M56 11H48" stroke="white" stroke-width="2" stroke-linecap="round" stroke-linejoin="round"/>
<path d="M58.7071 23.2929C59.0976 23.6834 59.0976 24.3166 58.7071 24.7071L52.3431 31.0711C51.9526 31.4616 51.3195 31.4616 50.9289 31.0711C50.5384 30.6805 50.5384 30.0474 50.9289 29.6569L56.5858 24L50.9289 18.3431C50.5384 17.9526 50.5384 17.3195 50.9289 16.9289C51.3195 16.5384 51.9526 16.5384 52.3431 16.9289L58.7071 23.2929ZM47 23H58V25H47V23Z" fill="white"/>
</svg>
