<svg width="86" height="86" viewBox="0 0 86 86" fill="none" xmlns="http://www.w3.org/2000/svg">
<circle cx="43" cy="43" r="42" stroke="white" stroke-width="2"/>
<circle cx="43" cy="43" r="34" fill="#E42D24" stroke="white" stroke-width="2"/>
<path d="M24.2168 35.3002H17.2568V32.0002H35.0768V35.3002H28.1168V53.0002H24.2168V35.3002Z" fill="white"/>
<path d="M36.5037 32.0002H40.4037V49.7002H51.3837V53.0002H36.5037V32.0002Z" fill="white"/>
<path d="M59.3262 53.3002C57.7062 53.3002 56.1362 53.0702 54.6162 52.6102C53.1162 52.1502 51.9262 51.5402 51.0462 50.7802L52.3962 47.7502C53.2562 48.4302 54.3062 48.9902 55.5462 49.4302C56.8062 49.8502 58.0662 50.0602 59.3262 50.0602C60.8862 50.0602 62.0462 49.8102 62.8062 49.3102C63.5862 48.8102 63.9762 48.1502 63.9762 47.3302C63.9762 46.7302 63.7562 46.2402 63.3162 45.8602C62.8962 45.4602 62.3562 45.1502 61.6962 44.9302C61.0362 44.7102 60.1362 44.4602 58.9962 44.1802C57.3962 43.8002 56.0962 43.4202 55.0962 43.0402C54.1162 42.6602 53.2662 42.0702 52.5462 41.2702C51.8462 40.4502 51.4962 39.3502 51.4962 37.9702C51.4962 36.8102 51.8062 35.7602 52.4262 34.8202C53.0662 33.8602 54.0162 33.1002 55.2762 32.5402C56.5562 31.9802 58.1162 31.7002 59.9562 31.7002C61.2362 31.7002 62.4962 31.8602 63.7362 32.1802C64.9762 32.5002 66.0462 32.9602 66.9462 33.5602L65.7162 36.5902C64.7962 36.0502 63.8362 35.6402 62.8362 35.3602C61.8362 35.0802 60.8662 34.9402 59.9262 34.9402C58.3862 34.9402 57.2362 35.2002 56.4762 35.7202C55.7362 36.2402 55.3662 36.9302 55.3662 37.7902C55.3662 38.3902 55.5762 38.8802 55.9962 39.2602C56.4362 39.6402 56.9862 39.9402 57.6462 40.1602C58.3062 40.3802 59.2062 40.6302 60.3462 40.9102C61.9062 41.2702 63.1862 41.6502 64.1862 42.0502C65.1862 42.4302 66.0362 43.0202 66.7362 43.8202C67.4562 44.6202 67.8162 45.7002 67.8162 47.0602C67.8162 48.2202 67.4962 49.2702 66.8562 50.2102C66.2362 51.1502 65.2862 51.9002 64.0062 52.4602C62.7262 53.0202 61.1662 53.3002 59.3262 53.3002Z" fill="white"/>
</svg>
