<svg width="86" height="86" viewBox="0 0 86 86" fill="none" xmlns="http://www.w3.org/2000/svg">
<circle cx="43" cy="43" r="42" stroke="white" stroke-width="2"/>
<circle cx="43" cy="43" r="34" fill="#918CFF" stroke="white" stroke-width="2"/>
<circle cx="70" cy="70" r="15" fill="#918CFF" stroke="white" stroke-width="2"/>
<path d="M44.5175 59.4598C41.2668 59.4598 38.3228 58.7545 35.6855 57.3438C33.0788 55.9025 31.0241 53.9245 29.5215 51.4098C28.0495 48.8952 27.3135 46.0585 27.3135 42.8998C27.3135 39.7412 28.0648 36.9045 29.5675 34.3898C31.0701 31.8752 33.1248 29.9125 35.7315 28.5018C38.3688 27.0605 41.3128 26.3398 44.5635 26.3398C47.2008 26.3398 49.6081 26.7998 51.7855 27.7198C53.9628 28.6398 55.8028 29.9738 57.3055 31.7218L53.4415 35.3558C51.1108 32.8412 48.2435 31.5838 44.8395 31.5838C42.6315 31.5838 40.6535 32.0745 38.9055 33.0558C37.1575 34.0065 35.7928 35.3405 34.8115 37.0578C33.8301 38.7752 33.3395 40.7225 33.3395 42.8998C33.3395 45.0772 33.8301 47.0245 34.8115 48.7418C35.7928 50.4592 37.1575 51.8085 38.9055 52.7898C40.6535 53.7405 42.6315 54.2158 44.8395 54.2158C48.2435 54.2158 51.1108 52.9432 53.4415 50.3978L57.3055 54.0778C55.8028 55.8258 53.9475 57.1598 51.7395 58.0798C49.5621 58.9998 47.1548 59.4598 44.5175 59.4598Z" fill="white"/>
<path d="M74.0489 75.9999L74.0129 69.3219L70.7729 74.7579H69.1889L65.9669 69.5019V75.9999H62.6729V63.3999H65.6069L70.0349 70.6719L74.3549 63.3999H77.2889L77.3249 75.9999H74.0489Z" fill="white"/>
</svg>
