<svg width="86" height="86" viewBox="0 0 86 86" fill="none" xmlns="http://www.w3.org/2000/svg">
<circle cx="43" cy="43" r="42" stroke="white" stroke-width="2"/>
<circle cx="43" cy="43" r="34" fill="#918CFF" stroke="white" stroke-width="2"/>
<path d="M20.7031 32.0002H24.6031V53.0002H20.7031V32.0002Z" fill="white"/>
<path d="M28.7832 32.0002H37.9632C40.2032 32.0002 42.1932 32.4402 43.9332 33.3202C45.6732 34.1802 47.0232 35.4102 47.9832 37.0102C48.9432 38.5902 49.4232 40.4202 49.4232 42.5002C49.4232 44.5802 48.9432 46.4202 47.9832 48.0202C47.0232 49.6002 45.6732 50.8302 43.9332 51.7102C42.1932 52.5702 40.2032 53.0002 37.9632 53.0002H28.7832V32.0002ZM37.7832 49.7002C39.3232 49.7002 40.6732 49.4102 41.8332 48.8302C43.0132 48.2302 43.9132 47.3902 44.5332 46.3102C45.1732 45.2102 45.4932 43.9402 45.4932 42.5002C45.4932 41.0602 45.1732 39.8002 44.5332 38.7202C43.9132 37.6202 43.0132 36.7802 41.8332 36.2002C40.6732 35.6002 39.3232 35.3002 37.7832 35.3002H32.6832V49.7002H37.7832Z" fill="white"/>
<path d="M58.5784 53.3002C56.9584 53.3002 55.3884 53.0702 53.8684 52.6102C52.3684 52.1502 51.1784 51.5402 50.2984 50.7802L51.6484 47.7502C52.5084 48.4302 53.5584 48.9902 54.7984 49.4302C56.0584 49.8502 57.3184 50.0602 58.5784 50.0602C60.1384 50.0602 61.2984 49.8102 62.0584 49.3102C62.8384 48.8102 63.2284 48.1502 63.2284 47.3302C63.2284 46.7302 63.0084 46.2402 62.5684 45.8602C62.1484 45.4602 61.6084 45.1502 60.9484 44.9302C60.2884 44.7102 59.3884 44.4602 58.2484 44.1802C56.6484 43.8002 55.3484 43.4202 54.3484 43.0402C53.3684 42.6602 52.5184 42.0702 51.7984 41.2702C51.0984 40.4502 50.7484 39.3502 50.7484 37.9702C50.7484 36.8102 51.0584 35.7602 51.6784 34.8202C52.3184 33.8602 53.2684 33.1002 54.5284 32.5402C55.8084 31.9802 57.3684 31.7002 59.2084 31.7002C60.4884 31.7002 61.7484 31.8602 62.9884 32.1802C64.2284 32.5002 65.2984 32.9602 66.1984 33.5602L64.9684 36.5902C64.0484 36.0502 63.0884 35.6402 62.0884 35.3602C61.0884 35.0802 60.1184 34.9402 59.1784 34.9402C57.6384 34.9402 56.4884 35.2002 55.7284 35.7202C54.9884 36.2402 54.6184 36.9302 54.6184 37.7902C54.6184 38.3902 54.8284 38.8802 55.2484 39.2602C55.6884 39.6402 56.2384 39.9402 56.8984 40.1602C57.5584 40.3802 58.4584 40.6302 59.5984 40.9102C61.1584 41.2702 62.4384 41.6502 63.4384 42.0502C64.4384 42.4302 65.2884 43.0202 65.9884 43.8202C66.7084 44.6202 67.0684 45.7002 67.0684 47.0602C67.0684 48.2202 66.7484 49.2702 66.1084 50.2102C65.4884 51.1502 64.5384 51.9002 63.2584 52.4602C61.9784 53.0202 60.4184 53.3002 58.5784 53.3002Z" fill="white"/>
</svg>
