<svg width="87" height="86" viewBox="0 0 87 86" fill="none" xmlns="http://www.w3.org/2000/svg">
<circle cx="43.4375" cy="43" r="42" stroke="white" stroke-width="2"/>
<circle cx="43.4375" cy="43" r="34" fill="#E42D24" stroke="white" stroke-width="2"/>
<path d="M45.6413 46.175H57.6413V41.375H45.6413V46.175Z" fill="white"/>
<path d="M57.6413 42.5318H51.9833V52.5598C50.082 53.6638 47.874 54.2158 45.3593 54.2158C43.1206 54.2158 41.112 53.7252 39.3333 52.7438C37.5853 51.7625 36.2053 50.4132 35.1933 48.6958C34.212 46.9785 33.7213 45.0465 33.7213 42.8998C33.7213 40.6918 34.212 38.7292 35.1933 37.0118C36.2053 35.2945 37.5853 33.9605 39.3333 33.0098C41.112 32.0592 43.136 31.5838 45.4053 31.5838C48.2796 31.5838 50.8058 32.4278 52.9839 34.1156L56.4986 30.0575C55.3247 29.0721 53.9883 28.2776 52.4893 27.6738C50.2813 26.7845 47.828 26.3398 45.1293 26.3398C41.8173 26.3398 38.8273 27.0605 36.1593 28.5018C33.522 29.9125 31.452 31.8752 29.9493 34.3898C28.4466 36.9045 27.6953 39.7412 27.6953 42.8998C27.6953 46.0585 28.4466 48.8952 29.9493 51.4098C31.452 53.9245 33.522 55.9025 36.1593 57.3438C38.7966 58.7545 41.756 59.4598 45.0373 59.4598C47.368 59.4598 49.6373 59.1072 51.8453 58.4018C54.0533 57.6965 55.9853 56.6845 57.6413 55.3658V42.5318Z" fill="white"/>
<circle cx="72" cy="14" r="13" fill="#918CFF" stroke="white" stroke-width="2"/>
</svg>
