<svg width="86" height="86" viewBox="0 0 86 86" fill="none" xmlns="http://www.w3.org/2000/svg">
<circle cx="43" cy="43" r="42" stroke="white" stroke-width="2"/>
<circle cx="43" cy="43" r="34" fill="#E42D24" stroke="white" stroke-width="2"/>
<path d="M45.2038 46.175H57.2038V41.375H45.2038V46.175Z" fill="white"/>
<path d="M57.2038 42.5318H51.5458V52.5598C49.6445 53.6638 47.4365 54.2158 44.9218 54.2158C42.6831 54.2158 40.6745 53.7252 38.8958 52.7438C37.1478 51.7625 35.7678 50.4132 34.7558 48.6958C33.7745 46.9785 33.2838 45.0465 33.2838 42.8998C33.2838 40.6918 33.7745 38.7292 34.7558 37.0118C35.7678 35.2945 37.1478 33.9605 38.8958 33.0098C40.6745 32.0592 42.6985 31.5838 44.9678 31.5838C47.8421 31.5838 50.3683 32.4278 52.5464 34.1156L56.0611 30.0575C54.8872 29.0721 53.5508 28.2776 52.0518 27.6738C49.8438 26.7845 47.3905 26.3398 44.6918 26.3398C41.3798 26.3398 38.3898 27.0605 35.7218 28.5018C33.0845 29.9125 31.0145 31.8752 29.5118 34.3898C28.0091 36.9045 27.2578 39.7412 27.2578 42.8998C27.2578 46.0585 28.0091 48.8952 29.5118 51.4098C31.0145 53.9245 33.0845 55.9025 35.7218 57.3438C38.3591 58.7545 41.3185 59.4598 44.5998 59.4598C46.9305 59.4598 49.1998 59.1072 51.4078 58.4018C53.6158 57.6965 55.5478 56.6845 57.2038 55.3658V42.5318Z" fill="white"/>
</svg>
