<svg width="71" height="46" viewBox="0 0 71 46" fill="none" xmlns="http://www.w3.org/2000/svg">
<path d="M18.0001 44.9995L52.0001 45C55.3138 45 58.0001 35.1504 58.0001 23.0003C58.0001 10.8502 55.3138 1.00054 52.0001 1.00054L18.0001 1" stroke="#1E1D85" stroke-width="2"/>
<ellipse cx="18.0001" cy="23" rx="6" ry="22" fill="#E42D24" stroke="#1E1D85" stroke-width="2"/>
<path d="M19.0001 15C19.5524 15 20.0001 14.5523 20.0001 14C20.0001 13.4477 19.5524 13 19.0001 13V15ZM0.292985 13.2929C-0.0975395 13.6834 -0.0975395 14.3166 0.292985 14.7071L6.65695 21.0711C7.04747 21.4616 7.68063 21.4616 8.07116 21.0711C8.46168 20.6805 8.46168 20.0474 8.07116 19.6569L2.41431 14L8.07116 8.34315C8.46168 7.95262 8.46168 7.31946 8.07116 6.92893C7.68063 6.53841 7.04747 6.53841 6.65695 6.92893L0.292985 13.2929ZM19.0001 13H1.00009V15H19.0001V13Z" fill="#1E1D85"/>
<path d="M19.0001 32H5.00009" stroke="#1E1D85" stroke-width="2" stroke-linecap="round" stroke-linejoin="round"/>
<path d="M68.0001 14H58.0001" stroke="#1E1D85" stroke-width="2" stroke-linecap="round" stroke-linejoin="round"/>
<path d="M70.7072 31.2929C71.0977 31.6834 71.0977 32.3166 70.7072 32.7071L64.3432 39.0711C63.9527 39.4616 63.3195 39.4616 62.929 39.0711C62.5385 38.6805 62.5385 38.0474 62.929 37.6569L68.5859 32L62.929 26.3431C62.5385 25.9526 62.5385 25.3195 62.929 24.9289C63.3195 24.5384 63.9527 24.5384 64.3432 24.9289L70.7072 31.2929ZM57.0001 31H70.0001V33H57.0001V31Z" fill="#1E1D85"/>
</svg>
