<svg width="65" height="53" viewBox="0 0 65 53" fill="none" xmlns="http://www.w3.org/2000/svg">
<path fill-rule="evenodd" clip-rule="evenodd" d="M20.6817 10C20.0913 10.0007 19.5185 10.2018 19.0574 10.5705C18.5962 10.9393 18.2739 11.4537 18.1433 12.0295L17.4137 15.2485C16.2487 15.5857 15.1451 16.0517 14.1027 16.6219L11.313 14.8622C10.8128 14.5465 10.2202 14.4103 9.63239 14.4761C9.04462 14.5418 8.49669 14.8056 8.07866 15.2239L6.22084 17.0818C5.8032 17.4996 5.53992 18.0469 5.47419 18.634C5.40846 19.2211 5.54418 19.8132 5.85909 20.313L7.6188 23.1089C7.04858 24.1451 6.58566 25.2549 6.24844 26.4168L3.02946 27.1464C2.45312 27.2771 1.93833 27.5999 1.56955 28.0617C1.20078 28.5235 0.999934 29.0969 0.999969 29.6879V32.3152C0.999934 32.9062 1.20078 33.4796 1.56955 33.9414C1.93833 34.4032 2.45312 34.7259 3.02946 34.8566L6.24844 35.5863C6.58566 36.7482 7.04858 37.8549 7.62187 38.8972L5.85909 41.687C5.5434 42.1871 5.40724 42.7798 5.47298 43.3676C5.53872 43.9554 5.80245 44.5033 6.22084 44.9213L8.08172 46.7791C8.49955 47.1968 9.0469 47.46 9.634 47.5258C10.2211 47.5915 10.8131 47.4558 11.313 47.1409L14.1058 45.3812C15.1451 45.9514 16.2518 46.4143 17.4137 46.7515L18.1433 49.9705C18.274 50.5468 18.5968 51.0616 19.0586 51.4304C19.5204 51.7992 20.0938 52 20.6848 52H23.3121C23.9031 52 24.4765 51.7992 24.9383 51.4304C25.4001 51.0616 25.7228 50.5468 25.8535 49.9705L26.5832 46.7515C27.7481 46.4143 28.8518 45.9544 29.8941 45.3812L32.687 47.1409C33.1868 47.4558 33.7788 47.5915 34.3659 47.5258C34.953 47.46 35.5004 47.1968 35.9182 46.7791L37.776 44.9213C38.1937 44.5035 38.4569 43.9561 38.5227 43.369C38.5884 42.7819 38.4527 42.1899 38.1378 41.6901L36.3781 38.8972C36.9514 37.8549 37.4143 36.7512 37.7515 35.5863L40.9705 34.8566C41.5468 34.7259 42.0616 34.4032 42.4304 33.9414C42.7992 33.4796 43 32.9062 43 32.3152V29.6879C43.0007 29.0964 42.8002 28.5222 42.4313 28.0598C42.0625 27.5974 41.5473 27.2742 40.9705 27.1434L37.7515 26.4168C37.4143 25.2518 36.9544 24.1482 36.3811 23.1058L38.1408 20.3161C38.4565 19.8159 38.5927 19.2233 38.527 18.6355C38.4612 18.0477 38.1975 17.4998 37.7791 17.0818L35.9213 15.2239C35.5032 14.8056 34.9553 14.5418 34.3675 14.4761C33.7798 14.4103 33.1871 14.5465 32.687 14.8622L29.8972 16.6219C28.8473 16.0439 27.737 15.5833 26.5862 15.2485L25.8535 12.0295C25.7228 11.4531 25.4001 10.9384 24.9383 10.5696C24.4765 10.2008 23.9031 9.99996 23.3121 10H20.6817Z" stroke="#1E1D85" stroke-width="2"/>
<path fill-rule="evenodd" clip-rule="evenodd" d="M28 31C28 32.5913 27.3678 34.1174 26.2426 35.2426C25.1174 36.3679 23.5913 37 22 37C20.4087 37 18.8825 36.3679 17.7573 35.2426C16.6321 34.1174 16 32.5913 16 31C16 29.4087 16.6321 27.8826 17.7573 26.7574C18.8825 25.6321 20.4087 25 22 25C23.5913 25 25.1174 25.6321 26.2426 26.7574C27.3678 27.8826 28 29.4087 28 31Z" stroke="#1E1D85" stroke-width="2"/>
<path fill-rule="evenodd" clip-rule="evenodd" d="M32 31C32 33.6522 30.9464 36.1957 29.071 38.0711C27.1957 39.9464 24.6521 41 22 41C19.3478 41 16.8043 39.9464 14.9289 38.0711C13.0535 36.1957 12 33.6522 12 31C12 28.3478 13.0535 25.8043 14.9289 23.9289C16.8043 22.0536 19.3478 21 22 21C24.6521 21 27.1957 22.0536 29.071 23.9289C30.9464 25.8043 32 28.3478 32 31Z" stroke="#1E1D85" stroke-width="2"/>
<path fill-rule="evenodd" clip-rule="evenodd" d="M51.2467 1C50.9093 1.00038 50.582 1.11533 50.3185 1.32602C50.055 1.53672 49.8708 1.83066 49.7962 2.15971L49.3792 3.99912C48.7135 4.19182 48.0829 4.4581 47.4873 4.78394L45.8931 3.77839C45.6073 3.598 45.2687 3.52019 44.9328 3.55776C44.5969 3.59532 44.2838 3.74603 44.0449 3.98511L42.9833 5.04672C42.7447 5.28548 42.5942 5.59824 42.5567 5.93373C42.5191 6.26922 42.5967 6.60751 42.7766 6.89314L43.7822 8.4908C43.4563 9.08292 43.1918 9.71708 42.9991 10.381L41.1597 10.798C40.8303 10.8726 40.5362 11.0571 40.3254 11.321C40.1147 11.5848 39.9999 11.9125 40 12.2502V13.7515C39.9999 14.0892 40.1147 14.4169 40.3254 14.6808C40.5362 14.9447 40.8303 15.1291 41.1597 15.2038L42.9991 15.6207C43.1918 16.2847 43.4563 16.9171 43.7839 17.5127L42.7766 19.1069C42.5962 19.3927 42.5184 19.7313 42.556 20.0672C42.5935 20.4031 42.7442 20.7162 42.9833 20.955L44.0467 22.0166C44.2854 22.2553 44.5982 22.4057 44.9337 22.4433C45.2692 22.4809 45.6075 22.4033 45.8931 22.2234L47.489 21.2178C48.0829 21.5436 48.7153 21.8082 49.3792 22.0009L49.7962 23.8403C49.8709 24.1696 50.0553 24.4638 50.3192 24.6745C50.5831 24.8852 50.9107 25 51.2484 25H52.7497C53.0875 25 53.4151 24.8852 53.679 24.6745C53.9429 24.4638 54.1273 24.1696 54.202 23.8403L54.6189 22.0009C55.2846 21.8082 55.9153 21.5454 56.5109 21.2178L58.1068 22.2234C58.3925 22.4033 58.7307 22.4809 59.0662 22.4433C59.4017 22.4057 59.7145 22.2553 59.9533 22.0166L61.0149 20.955C61.2535 20.7163 61.404 20.4035 61.4415 20.068C61.4791 19.7325 61.4015 19.3942 61.2216 19.1086L60.216 17.5127C60.5436 16.9171 60.8081 16.2864 61.0008 15.6207L62.8403 15.2038C63.1696 15.1291 63.4638 14.9447 63.6745 14.6808C63.8852 14.4169 64 14.0892 64 13.7515V12.2502C64.0004 11.9122 63.8858 11.5841 63.675 11.3199C63.4643 11.0556 63.1699 10.871 62.8403 10.7962L61.0008 10.381C60.8081 9.71533 60.5454 9.08467 60.2178 8.48905L61.2233 6.89489C61.4037 6.60909 61.4815 6.27044 61.444 5.93456C61.4064 5.59869 61.2557 5.28559 61.0166 5.04672L59.955 3.98511C59.7161 3.74603 59.403 3.59532 59.0672 3.55776C58.7313 3.52019 58.3926 3.598 58.1068 3.77839L56.5127 4.78394C55.9127 4.45365 55.2783 4.19046 54.6207 3.99912L54.202 2.15971C54.1273 1.83037 53.9429 1.5362 53.679 1.32548C53.4151 1.11475 53.0875 0.99998 52.7497 1H51.2467ZM56.2499 13C56.2499 14.1267 55.8023 15.2072 55.0056 16.0039C54.2089 16.8006 53.1284 17.2482 52.0017 17.2482C50.875 17.2482 49.7945 16.8006 48.9978 16.0039C48.2011 15.2072 47.7535 14.1267 47.7535 13C47.7535 11.8733 48.2011 10.7928 48.9978 9.99608C49.7945 9.1994 50.875 8.75182 52.0017 8.75182C53.1284 8.75182 54.2089 9.1994 55.0056 9.99608C55.8023 10.7928 56.2499 11.8733 56.2499 13Z" fill="#E42D24" stroke="#1E1D85" stroke-width="2"/>
</svg>
