<svg width="89" height="63" viewBox="0 0 89 63" fill="none" xmlns="http://www.w3.org/2000/svg">
<path d="M87.1369 9.86158C86.6564 7.92761 85.6777 6.15563 84.2998 4.72462C82.9218 3.29361 81.1934 2.25425 79.2891 1.71151C72.3313 3.64336e-07 44.5 0 44.5 0C44.5 0 16.6687 1.21445e-07 9.7109 1.87452C7.80659 2.41725 6.07818 3.45661 4.70024 4.88762C3.32231 6.31863 2.34365 8.09061 1.86313 10.0246C0.589741 17.1378 -0.0331404 24.3537 0.00231244 31.5815C-0.0430781 38.8638 0.579843 46.1347 1.86313 53.3014C2.39289 55.1753 3.39347 56.8799 4.76819 58.2505C6.14292 59.621 7.84532 60.6113 9.7109 61.1255C16.6687 63 44.5 63 44.5 63C44.5 63 72.3313 63 79.2891 61.1255C81.1934 60.5828 82.9218 59.5434 84.2998 58.1124C85.6777 56.6814 86.6564 54.9094 87.1369 52.9754C88.4005 45.9158 89.0233 38.7549 88.9977 31.5815C89.0431 24.2992 88.4202 17.0283 87.1369 9.86158Z" fill="black"/>
<path d="M36 45L60 32L36 19V45Z" fill="white"/>
</svg>
