<svg width="140" height="140" viewBox="0 0 140 140" fill="none" xmlns="http://www.w3.org/2000/svg">
<rect x="0.5" y="0.5" width="139" height="139" fill="#F6F6FF" stroke="#DEDEF4"/>
<path d="M102 80.5175L84.3077 62.6154L45.3846 102M66.3077 80.718L56.4103 70.8205L38 89.2308M45.1111 38H94.8889C98.8162 38 102 41.1838 102 45.1111V94.8889C102 98.8162 98.8162 102 94.8889 102H45.1111C41.1838 102 38 98.8162 38 94.8889V45.1111C38 41.1838 41.1838 38 45.1111 38ZM69.1795 55.2308C69.1795 59.3092 65.8733 62.6154 61.7949 62.6154C57.7165 62.6154 54.4103 59.3092 54.4103 55.2308C54.4103 51.1524 57.7165 47.8462 61.7949 47.8462C65.8733 47.8462 69.1795 51.1524 69.1795 55.2308Z" stroke="#DEDEF4" stroke-width="2" stroke-linecap="round" stroke-linejoin="round"/>
</svg>
