<svg width="348" height="197" viewBox="0 0 348 197" fill="none" xmlns="http://www.w3.org/2000/svg">
<rect x="0.5" y="0.5" width="347" height="196" fill="#F6F6FF" stroke="#DEDEF4"/>
<path d="M206 109.517L188.308 91.6154L149.385 131M170.308 109.718L160.41 99.8205L142 118.231M149.111 67H198.889C202.816 67 206 70.1838 206 74.1111V123.889C206 127.816 202.816 131 198.889 131H149.111C145.184 131 142 127.816 142 123.889V74.1111C142 70.1838 145.184 67 149.111 67ZM173.179 84.2308C173.179 88.3092 169.873 91.6154 165.795 91.6154C161.716 91.6154 158.41 88.3092 158.41 84.2308C158.41 80.1524 161.716 76.8462 165.795 76.8462C169.873 76.8462 173.179 80.1524 173.179 84.2308Z" stroke="#DEDEF4" stroke-width="2" stroke-linecap="round" stroke-linejoin="round"/>
</svg>
