<svg>
    <symbol id="download-arrow"  viewBox="0 0 22 21" fill="none" xmlns="http://www.w3.org/2000/svg">
        <path d="M11 1V17M11 17L17.5 10.5M11 17L4.5 10.5M1 20H21" stroke="currentColor" stroke-width="2" stroke-linecap="round" stroke-linejoin="round"/>
    </symbol>
    <symbol id="download-arrow-mobile" viewBox="0 0 17 17" fill="none" xmlns="http://www.w3.org/2000/svg">
        <path d="M8.5 0.999512V12.9995M8.5 12.9995L13.375 8.12451M8.5 12.9995L3.625 8.12451M1 15.2495H16" stroke="currentColor" stroke-width="2" stroke-linecap="round" stroke-linejoin="round"/>
    </symbol>

    <symbol id="about-number-1" viewBox="0 0 35 30" fill="none" xmlns="http://www.w3.org/2000/svg">
        <circle cx="29" cy="24" r="5" fill="#E42D24" stroke="#1E1D85" stroke-width="2"/>
        <path d="M15.4402 1V29H6.0002V8.12H1.2002V1H15.4402Z" stroke="#1E1D85" stroke-width="2"/>
    </symbol>

    <symbol id="about-number-2" viewBox="0 0 45 31" fill="none" xmlns="http://www.w3.org/2000/svg">
        <circle cx="39" cy="25" r="5" fill="#E42D24" stroke="#1E1D85" stroke-width="2"/>
        <path d="M25.56 22.6804V30.0004H3.11998V24.2004L13.24 14.8404C14.12 14.0137 14.7066 13.307 15 12.7204C15.2933 12.1337 15.44 11.5604 15.44 11.0004C15.44 10.307 15.2 9.77368 14.72 9.40035C14.2666 9.00035 13.6 8.80035 12.72 8.80035C11.8666 8.80035 11.0666 9.02702 10.32 9.48035C9.57331 9.93369 8.99998 10.5737 8.59998 11.4004L1.47998 7.84035C2.54665 5.84035 4.10665 4.26702 6.15998 3.12035C8.21331 1.94702 10.6933 1.36035 13.6 1.36035C15.8133 1.36035 17.7733 1.72035 19.48 2.44035C21.1866 3.16035 22.52 4.18702 23.48 5.52035C24.44 6.85368 24.92 8.38702 24.92 10.1204C24.92 11.667 24.5866 13.1204 23.92 14.4804C23.28 15.8137 22.0133 17.3337 20.12 19.0404L16.12 22.6804H25.56Z" stroke="#1E1D85" stroke-width="2"/>
    </symbol>

    <symbol id="about-number-3" viewBox="0 0 44 31" fill="none" xmlns="http://www.w3.org/2000/svg">
        <circle cx="38" cy="24" r="5" fill="#E42D24" stroke="#1E1D85" stroke-width="2"/>
        <path d="M18.88 12.08C21.04 12.6133 22.6933 13.5867 23.84 15C25.0133 16.3867 25.6 18.0667 25.6 20.04C25.6 21.72 25.1333 23.2933 24.2 24.76C23.2933 26.2 21.88 27.3733 19.96 28.28C18.04 29.1867 15.6533 29.64 12.8 29.64C10.8267 29.64 8.85334 29.4267 6.88001 29C4.93334 28.5733 3.22668 27.9467 1.76001 27.12L4.96001 20.16C6.10668 20.8267 7.33334 21.3333 8.64001 21.68C9.97334 22.0267 11.2533 22.2 12.48 22.2C13.5733 22.2 14.4533 22.0133 15.12 21.64C15.7867 21.2667 16.12 20.7333 16.12 20.04C16.12 18.76 15.0133 18.12 12.8 18.12H9.08001V12.32L13.2 8.12H3.20001V1H24.08V6.8L18.88 12.08Z" stroke="#1E1D85" stroke-width="2"/>
    </symbol>

    <symbol id="about-number-4" viewBox="0 0 48 30" fill="none" xmlns="http://www.w3.org/2000/svg">
        <circle cx="42" cy="24" r="5" fill="#E42D24" stroke="#1E1D85" stroke-width="2"/>
        <path d="M29.3199 24.2H25.5999V29H16.4399V24.2H1.91992V18.2L13.7999 1H23.4799L12.9199 16.88H16.7199V12.6H25.5999V16.88H29.3199V24.2Z" stroke="#1E1D85" stroke-width="2"/>
    </symbol>

    <symbol id="about-number-5" viewBox="0 0 45 31" fill="none" xmlns="http://www.w3.org/2000/svg">
        <circle cx="39" cy="24" r="5" fill="#E42D24" stroke="#1E1D85" stroke-width="2"/>
        <path d="M14.6 10.88C18.52 10.88 21.4 11.7067 23.24 13.36C25.1066 14.9867 26.04 17.1333 26.04 19.8C26.04 21.56 25.5733 23.1867 24.64 24.68C23.7333 26.1467 22.32 27.3467 20.4 28.28C18.48 29.1867 16.0933 29.64 13.24 29.64C11.2666 29.64 9.29328 29.4267 7.31995 29C5.37328 28.5733 3.66662 27.9467 2.19995 27.12L5.39995 20.16C6.57328 20.8267 7.79995 21.3333 9.07995 21.68C10.3866 22.0267 11.6533 22.2 12.88 22.2C13.9733 22.2 14.8533 22.0133 15.52 21.64C16.2133 21.24 16.56 20.6933 16.56 20C16.56 19.3333 16.2533 18.84 15.64 18.52C15.0266 18.1733 13.92 18 12.32 18H4.19995L5.59995 1H24.2V8.12H13.36L13.16 10.88H14.6Z" stroke="#1E1D85" stroke-width="2"/>
    </symbol>

    <symbol id="about-number-6" viewBox="0 0 44 32" fill="none" xmlns="http://www.w3.org/2000/svg">
        <circle cx="38" cy="25" r="5" fill="#E42D24" stroke="#1E1D85" stroke-width="2"/>
        <path d="M16.3599 11.8804C18.0666 11.8804 19.6532 12.2537 21.1199 13.0004C22.5866 13.747 23.7599 14.8004 24.6399 16.1604C25.5199 17.5204 25.9599 19.0804 25.9599 20.8404C25.9599 22.787 25.4532 24.507 24.4399 26.0004C23.4532 27.4937 22.0932 28.6404 20.3599 29.4404C18.6266 30.2404 16.7066 30.6404 14.5999 30.6404C11.9066 30.6404 9.54658 30.1204 7.51991 29.0804C5.51991 28.0404 3.95991 26.4937 2.83991 24.4404C1.71991 22.387 1.15991 19.867 1.15991 16.8804C1.15991 13.6804 1.79991 10.907 3.07991 8.56035C4.38658 6.21369 6.19991 4.42702 8.51991 3.20035C10.8666 1.97368 13.5866 1.36035 16.6799 1.36035C18.3599 1.36035 19.9599 1.56035 21.4799 1.96035C22.9999 2.33368 24.2932 2.86702 25.3599 3.56035L21.9599 10.1604C20.5732 9.17368 18.8799 8.68035 16.8799 8.68035C15.2532 8.68035 13.9066 9.09368 12.8399 9.92035C11.7999 10.7204 11.1199 11.8937 10.7999 13.4404C12.2666 12.4004 14.1199 11.8804 16.3599 11.8804ZM13.9599 24.1204C14.8132 24.1204 15.5066 23.867 16.0399 23.3604C16.5732 22.8537 16.8399 22.1604 16.8399 21.2804C16.8399 20.4004 16.5732 19.707 16.0399 19.2004C15.5066 18.667 14.8132 18.4004 13.9599 18.4004C13.1066 18.4004 12.4132 18.667 11.8799 19.2004C11.3466 19.707 11.0799 20.4004 11.0799 21.2804C11.0799 22.1604 11.3466 22.8537 11.8799 23.3604C12.4132 23.867 13.1066 24.1204 13.9599 24.1204Z" stroke="#1E1D85" stroke-width="2"/>
    </symbol>

    <symbol id="i-arrow-2" viewBox="0 0 17 17" fill="none" xmlns="http://www.w3.org/2000/svg">
        <path d="M8.5 1V13M8.5 13L13.375 8.125M8.5 13L3.625 8.125M1 15.25H16" stroke="currentColor" stroke-width="2" stroke-linecap="round" stroke-linejoin="round"/>
    </symbol>


    <symbol id="i-user-icon" viewBox="0 0 24 24" fill="none" xmlns="http://www.w3.org/2000/svg">
        <rect width="24" height="24" fill="#E5E5E5"/>
        <g id="support">
            <g id="st-support" clip-path="url(#clip0_202_274)">
                <rect width="1440" height="3731" transform="translate(-109 -375)" fill="white"/>
                <g id="banner">
                    <path id="Vector" d="M1331 -295H-109V155H1331V-295Z" fill="#1E1D85"/>
                    <g id="button enter">
                        <rect id="Rectangle 2030" x="-39" y="-15" width="343" height="54" rx="27" fill="#E42D24"/>
                        <path id="Vector_2" fill-rule="evenodd" clip-rule="evenodd" d="M12 11C14.7614 11 17 8.76143 17 6C17 3.23857 14.7614 1 12 1C9.23862 1 7 3.23857 7 6C7 8.76143 9.23862 11 12 11Z" stroke="white" stroke-width="2"/>
                    </g>
                </g>
            </g>
        </g>
        <defs>
            <clipPath id="clip0_202_274">
                <rect width="1440" height="3731" fill="white" transform="translate(-109 -375)"/>
            </clipPath>
        </defs>
    </symbol>

    <symbol  id="i-user-icon-mobile" viewBox="0 0 19 18" fill="none" xmlns="http://www.w3.org/2000/svg">
        <path fill-rule="evenodd" clip-rule="evenodd" d="M9.5 8.5C11.571 8.5 13.25 6.82107 13.25 4.75C13.25 2.67893 11.571 1 9.5 1C7.42896 1 5.75 2.67893 5.75 4.75C5.75 6.82107 7.42896 8.5 9.5 8.5Z" stroke="currentColor" stroke-width="2"/>
    </symbol>

    <symbol id="check-icon" viewBox="0 0 15 11" fill="none" xmlns="http://www.w3.org/2000/svg">
        <path d="M2 5L6 9L13 2" stroke="currentColor" stroke-width="3" stroke-linecap="round" stroke-linejoin="round"/>
    </symbol>
    <symbol id="phone-icon" viewBox="0 0 17 14" fill="none" xmlns="http://www.w3.org/2000/svg">
        <path d="M13 1H14C15.1046 1 16 1.89543 16 3V11C16 12.1046 15.1046 13 14 13H13M13 1H3C1.89543 1 1 1.89543 1 3V11C1 12.1046 1.89543 13 3 13H13" stroke="#7470E0"/>
        <rect x="3" y="3" width="2" height="8" rx="0.5" stroke="#7470E0"/>
        <path d="M7.5 4.5H8.5V5.5H7.5V4.5Z" fill="#7470E0"/>
        <path d="M9.5 4.5H10.5V5.5H9.5V4.5Z" fill="#7470E0"/>
        <path d="M11.5 4.5H12.5V5.5H11.5V4.5Z" fill="#7470E0"/>
        <path d="M7.5 6.5H8.5V7.5H7.5V6.5Z" fill="#7470E0"/>
        <path d="M9.5 6.5H10.5V7.5H9.5V6.5Z" fill="#7470E0"/>
        <path d="M11.5 6.5H12.5V7.5H11.5V6.5Z" fill="#7470E0"/>
        <path d="M7.5 8.5H8.5V9.5H7.5V8.5Z" fill="#7470E0"/>
        <path d="M9.5 8.5H10.5V9.5H9.5V8.5Z" fill="#7470E0"/>
        <path d="M11.5 8.5H12.5V9.5H11.5V8.5Z" fill="#7470E0"/>
    </symbol>

    <symbol id="mail-icon" viewBox="0 0 17 13" fill="none" xmlns="http://www.w3.org/2000/svg">
        <path d="M13 0.5H14C15.1046 0.5 16 1.39543 16 2.5V10.5C16 11.6046 15.1046 12.5 14 12.5H13M13 0.5H3C1.89543 0.5 1 1.39543 1 2.5V10.5C1 11.6046 1.89543 12.5 3 12.5H13" stroke="#7470E0"/>
        <path d="M1 3.5L8.02941 7.24902C8.32353 7.40588 8.67647 7.40588 8.97059 7.24902L16 3.5" stroke="#7470E0"/>
    </symbol>

    <symbol id="pin-icon" viewBox="0 0 17 20" fill="none" xmlns="http://www.w3.org/2000/svg">
        <path d="M16 8.5C16 4.35786 12.6421 1 8.5 1C4.35786 1 1 4.35786 1 8.5C1 9.98045 1.42894 11.3607 2.16933 12.5233C3.74663 15 8.5 19 8.5 19C8.5 19 13.2534 15 14.8307 12.5233C15.5711 11.3607 16 9.98045 16 8.5Z" stroke="#7470E0"/>
        <circle cx="8.5" cy="8.5" r="3.5" stroke="#7470E0"/>
    </symbol>

    <symbol id="user-icon" viewBox="0 0 17 18" fill="none" xmlns="http://www.w3.org/2000/svg">
        <path fill-rule="evenodd" clip-rule="evenodd" d="M8.5 8.5C10.571 8.5 12.25 6.82107 12.25 4.75C12.25 2.67893 10.571 1 8.5 1C6.42896 1 4.75 2.67893 4.75 4.75C4.75 6.82107 6.42896 8.5 8.5 8.5Z" stroke="#7470E0"/>
    </symbol>

    <symbol id="youtube-play"  viewBox="0 0 89 63" fill="none" xmlns="http://www.w3.org/2000/svg">
        <path d="M87.1369 9.86158C86.6564 7.92761 85.6777 6.15563 84.2998 4.72462C82.9218 3.29361 81.1934 2.25425 79.2891 1.71151C72.3313 3.64336e-07 44.5 0 44.5 0C44.5 0 16.6687 1.21445e-07 9.7109 1.87452C7.80659 2.41725 6.07818 3.45661 4.70024 4.88762C3.32231 6.31863 2.34365 8.09061 1.86313 10.0246C0.589741 17.1378 -0.0331404 24.3537 0.00231244 31.5815C-0.0430781 38.8638 0.579843 46.1347 1.86313 53.3014C2.39289 55.1753 3.39347 56.8799 4.76819 58.2505C6.14292 59.621 7.84532 60.6113 9.7109 61.1255C16.6687 63 44.5 63 44.5 63C44.5 63 72.3313 63 79.2891 61.1255C81.1934 60.5828 82.9218 59.5434 84.2998 58.1124C85.6777 56.6814 86.6564 54.9094 87.1369 52.9754C88.4005 45.9158 89.0233 38.7549 88.9977 31.5815C89.0431 24.2992 88.4202 17.0283 87.1369 9.86158Z" fill="currentColor"/>
        <path d="M36 45L60 32L36 19V45Z" fill="white"/>
    </symbol>

    <symbol id="user" viewBox="0 0 24 24"  xmlns="http://www.w3.org/2000/svg">
        <path  fill-rule="evenodd" clip-rule="evenodd" d="M11.9998 2C9.79067 2 7.99977 3.79086 7.99977 6C7.99977 8.20914 9.79067 10 11.9998 10C14.2089 10 15.9998 8.20914 15.9998 6C15.9998 3.79086 14.2089 2 11.9998 2ZM15.7637 10.6728C17.1274 9.57299 17.9998 7.88837 17.9998 6C17.9998 2.68628 15.3134 0 11.9998 0C8.68611 0 5.99977 2.68628 5.99977 6C5.99977 7.88837 6.87215 9.57299 8.23587 10.6728C5.2127 11.7916 2.77849 14.2175 1.50324 17.2819L1.49268 17.3073L0.81543 19.2257L1.39027 19.6676L1.99977 18.8748C1.39027 19.6676 1.39022 19.6676 1.39027 19.6676L1.39287 19.6696L1.39795 19.6735L1.41538 19.6867C1.43016 19.6979 1.45121 19.7138 1.478 19.7338C1.53156 19.7737 1.60824 19.8302 1.70392 19.8989C1.89485 20.036 2.16364 20.2233 2.47687 20.4253C5.25464 22.2164 8.51404 23.25 11.9998 23.25C15.4855 23.25 18.7449 22.2164 21.5227 20.4253C21.8359 20.2233 22.1047 20.036 22.2956 19.8989C22.3913 19.8302 22.468 19.7737 22.5215 19.7338C22.5483 19.7138 22.5694 19.6979 22.5842 19.6867L22.6016 19.6735L22.6067 19.6696L22.6083 19.6684L22.6091 19.6678C22.6091 19.6677 22.6093 19.6676 21.9998 18.8748L22.6091 19.6678L23.1841 19.2257L22.5069 17.3073L22.4963 17.2819C21.2211 14.2175 18.7869 11.7916 15.7637 10.6728ZM20.8069 18.4999L20.6395 18.0255C19.1365 14.4394 15.8085 12 11.9998 12C8.19104 12 4.86303 14.4394 3.36009 18.0255L3.19261 18.4999C3.3044 18.5763 3.42823 18.659 3.56071 18.7444C6.0314 20.3375 8.91711 21.25 11.9998 21.25C15.0824 21.25 17.9681 20.3375 20.4388 18.7444C20.5713 18.659 20.6952 18.5763 20.8069 18.4999Z" fill="currentColor"/>
    </symbol>
    <symbol id="user-mobile" viewBox="0 0 19 18" fill="none" xmlns="http://www.w3.org/2000/svg">
        <path d="M9.5 8.5C11.571 8.5 13.25 6.82107 13.25 4.75C13.25 2.67893 11.571 1 9.5 1C7.42896 1 5.75 2.67893 5.75 4.75C5.75 6.82107 7.42896 8.5 9.5 8.5ZM9.5 8.5C12.7003 8.5 15.4539 10.5533 16.68 13.4996L17 14.4061C17 14.4061 16.68 14.6522 16.2357 14.9386C14.2676 16.2077 11.9632 16.9375 9.5 16.9375C7.03685 16.9375 4.73244 16.2077 2.76426 14.9386C2.32003 14.6522 2 14.4061 2 14.4061L2.32003 13.4996C3.54612 10.5533 6.29967 8.5 9.5 8.5Z" stroke="white" stroke-width="2"/>
    </symbol>

    <svg id="links-icon" viewBox="0 0 17 17" fill="none" xmlns="http://www.w3.org/2000/svg">
        <path d="M8 9L16 1M16 1V6M16 1H11.0607M6 1H1V16H16V11" stroke="#1E1D85" stroke-width="2" stroke-linecap="round" stroke-linejoin="round"/>
    </svg>

</svg>