<svg width="28" height="28" viewBox="0 0 28 28" fill="none" xmlns="http://www.w3.org/2000/svg">
<path d="M10 7C10 6.44772 10.4477 6 11 6C11.5523 6 12 6.44772 12 7V15C12 15.5523 11.5523 16 11 16C10.4477 16 10 15.5523 10 15V7Z" fill="white"/>
<path d="M7 12C6.44772 12 6 11.5523 6 11C6 10.4477 6.44772 10 7 10H15C15.5523 10 16 10.4477 16 11C16 11.5523 15.5523 12 15 12H7Z" fill="white"/>
<path d="M17 18.4273L18.4273 17L27.7044 26.2772C28.0985 26.6713 28.0985 27.3103 27.7044 27.7044C27.3103 28.0985 26.6713 28.0985 26.2772 27.7044L17 18.4273Z" fill="white"/>
<path fill-rule="evenodd" clip-rule="evenodd" d="M18.7782 3.22183C20.9355 5.37916 22.0094 8.20965 21.9999 11.0372C21.9905 13.8399 20.9166 16.6397 18.7782 18.7782C14.4824 23.0739 7.51759 23.0739 3.22183 18.7782C-1.07394 14.4824 -1.07394 7.51759 3.22183 3.22183C7.51759 -1.07394 14.4824 -1.07394 18.7782 3.22183ZM17.364 17.364C13.8492 20.8787 8.15076 20.8787 4.63604 17.364C1.12132 13.8492 1.12132 8.15076 4.63604 4.63604C8.15076 1.12132 13.8492 1.12132 17.364 4.63604C19.1294 6.40149 20.0077 8.71386 19.9999 11.0305C19.9922 13.3266 19.114 15.6139 17.364 17.364Z" fill="white"/>
</svg>
