<svg width="10" height="10" viewBox="0 0 10 10" fill="none" xmlns="http://www.w3.org/2000/svg">
<path d="M9.73162 9.73327C10.0872 9.37764 10.0872 8.80104 9.73162 8.4454L1.55417 0.266727C1.19864 -0.0889085 0.622193 -0.0889092 0.266654 0.266726C-0.0888847 0.622362 -0.0888847 1.19896 0.266654 1.5546L8.4441 9.73327C8.79964 10.0889 9.37608 10.0889 9.73162 9.73327Z" fill="#1E1D85"/>
<path d="M0.266655 9.73327C-0.0888839 9.37764 -0.0888839 8.80104 0.266655 8.4454L8.4441 0.266727C8.79964 -0.0889085 9.37608 -0.0889092 9.73162 0.266726C10.0872 0.622362 10.0872 1.19896 9.73162 1.5546L1.55417 9.73327C1.19864 10.0889 0.622194 10.0889 0.266655 9.73327Z" fill="#1E1D85"/>
</svg>
