<svg xmlns="http://www.w3.org/2000/svg" viewBox="0 0 198 41"><defs><style>.a{fill:red;}.a,.b{fill-rule:evenodd;}.b,.c{fill:#006;}</style></defs><path class="a" d="M47,24.2a8.85,8.85,0,1,1-8.91-8.79h.06A8.85,8.85,0,0,1,47,24.2Z" transform="translate(0 0.01)"/><path class="b" d="M11.44,40.91a77.63,77.63,0,0,1-11.3-.65L0,30.29l4.42-.9a60.4,60.4,0,0,0,2.22,7.35,7.08,7.08,0,0,0,4,1.68,6.79,6.79,0,0,0,2.89-.4,4.47,4.47,0,0,0,1.18-.8,5.24,5.24,0,0,0,.8-4.54,5.32,5.32,0,0,0-.6-1c-2.35-2.41-6.23-2.74-9.15-4.2a9.53,9.53,0,0,1-5.19-8,10.73,10.73,0,0,1,1-5.32A10.36,10.36,0,0,1,7.41,9.73c2.7-.81,5.45-.49,8.22-.27l5.7.43.94,8.86-4.49.9a76.09,76.09,0,0,0-2.63-7.18,5.75,5.75,0,0,0-5.23-.19,3.92,3.92,0,0,0-1.1,5.42,3.8,3.8,0,0,0,.73.82C11.92,20.39,15.3,20.67,18,22a9.29,9.29,0,0,1,5.26,6.89A10.43,10.43,0,0,1,21,37.36C18.62,40,14.9,41,11.44,41Z" transform="translate(0 0.01)"/><path class="b" d="M70.47,38.65c-3.9,2.22-10.7,4-14-.14a10.39,10.39,0,0,1-1.92-6.65V13H49.91V9.08c1.84-.35,3.54-.51,5.12-1.74C57.46,5.46,58.16,2.91,58.9,0h4.43V9.08H71.4v3.7h-8V33.59c.55,1.49,1.11,2.55,2.82,2.78A9.8,9.8,0,0,0,70.53,36v2.6Z" transform="translate(0 0.01)"/><path class="b" d="M125.61,9.22l.77,9-4.43.93-1.88-5.43a7.51,7.51,0,0,0-3.92.8,8.09,8.09,0,0,0-2.9,2.88v17a3.63,3.63,0,0,0,.8,2.78c1,1,2.79,1,4.08,1.17v2.22H101V38.35c1.83-.42,3.54-.35,3.81-2.6.19-1.75.3-18.73-.13-20.31a4,4,0,0,0-4-3.07V10.09l12.23-.82.4.48v4.52h.1a12.84,12.84,0,0,1,5-4.67C120.66,8.51,123.2,9.08,125.61,9.22Z" transform="translate(0 0.01)"/><path class="b" d="M154.17,9.22l.76,9-4.43.93-1.88-5.43a7.54,7.54,0,0,0-3.93.8,8.14,8.14,0,0,0-2.89,2.88v17a3.64,3.64,0,0,0,.82,2.78c1,1,2.78,1,4.07,1.17v2.22H129.54V38.35c1.81-.42,3.54-.35,3.79-2.6.21-1.75.31-18.73-.12-20.31a4,4,0,0,0-4-3.07V10.09l12.23-.82.39.48v4.52h.1a12.86,12.86,0,0,1,5-4.67C149.25,8.51,151.75,9.08,154.17,9.22Z" transform="translate(0 0.01)"/><path class="b" d="M99.28,32.57a15.32,15.32,0,0,1-5.88,6.37,14,14,0,0,1-8.29,1.77,13.42,13.42,0,0,1-11.93-9,19.74,19.74,0,0,1,1.37-16.26c2.85-4.8,8.06-7,13.53-6.45a11.18,11.18,0,0,1,7.61,3.67,13.32,13.32,0,0,1,2.89,8.55v2.49H81.28c0,3.33.29,7.37,2.48,10.12a7.59,7.59,0,0,0,9.37,1.65A10.57,10.57,0,0,0,97.25,31l2,1.57ZM89.59,21.18s.35-6.95-2-9.1-5.22.58-5.81,3.79a25.77,25.77,0,0,0-.53,5.33Z" transform="translate(0 0.01)"/><path class="b" d="M185.83,39.24c-3.92,1.84-11.35,3-12.59-2.72l-.16-.18c-2.92,4.57-10.57,6.47-14.38,1.9a9,9,0,0,1-1.32-7.92c.83-3.05,3.24-4.69,6-5.87,3.16-1.34,6.64-2.09,9.66-3.74,0-2.37.43-5.54-.85-7.67-1.56-2.61-4.66-1.33-7-.76l-2.87,7.12-4.32-.85.73-8.86c3.67-.22,7.41-.68,11.06-.68,3,0,6.49.24,8.85,2.29s2.79,5.54,2.79,8.66c0,3.46-.1,6.94-.19,10.41,0,1.69-.48,4.09.52,5.54.86,1.28,2.57,1.1,3.93,1.1v2.22Zm-13-14.86c-2.94,1.1-6.24,2.79-7,6.08-.49,2.21-.42,6,2.46,6.49,1.92.32,3.31-.89,4.42-2.33l.1-10.24Z" transform="translate(0 0.01)"/><path class="c" d="M191.73,11.19h-1V6.67a12.48,12.48,0,0,1,1.72-.15,2.47,2.47,0,0,1,1.55.37,1.11,1.11,0,0,1,.47,1A1.17,1.17,0,0,1,193.49,9h0c.44.13.66.49.8,1.11a4.42,4.42,0,0,0,.33,1.11h-1.11a3.35,3.35,0,0,1-.35-1.11c-.09-.47-.37-.69-.95-.69h-.49Zm0-2.54h.48c.59,0,1.06-.2,1.06-.66s-.3-.69-1-.69a1.85,1.85,0,0,0-.57.06Z" transform="translate(0 0.01)"/><path class="c" d="M192.47,4.5A4.43,4.43,0,1,1,188,8.93a4.42,4.42,0,0,1,4.43-4.43m0-1.11A5.54,5.54,0,1,0,198,8.93,5.53,5.53,0,0,0,192.47,3.39Z" transform="translate(0 0.01)"/></svg>