<?xml version="1.0" encoding="utf-8"?>
<!-- Generator: Adobe Illustrator 24.3.0, SVG Export Plug-In . SVG Version: 6.00 Build 0)  -->
<svg version="1.1" id="Слой_1" xmlns="http://www.w3.org/2000/svg" xmlns:xlink="http://www.w3.org/1999/xlink" x="0px" y="0px"
	 viewBox="0 0 105 93" style="enable-background:new 0 0 105 93;" xml:space="preserve">
<style type="text/css">
	.st0{fill:#000066;}
</style>
<g>
	<path class="st0" d="M26.6,21.3l7.6,6.2l-1.5,1.8l-6.1-5l-1,1.2l6.1,5l-1.5,1.8l-7.6-6.2L26.6,21.3z"/>
	<path class="st0" d="M37.6,24.8l-2,1.3L30.1,18l2.8-1.9c1.1-0.8,2.6-1.2,4.1,0.9c1.4,2,0.5,3.3-0.7,4.1l-0.9,0.6L37.6,24.8z
		 M34.4,20.2l0.4-0.2c0.5-0.3,0.8-0.9,0.2-1.7c-0.5-0.8-1.1-0.7-1.7-0.3l-0.3,0.2L34.4,20.2z"/>
	<path class="st0" d="M45.2,13.6l1.3,4.2c0.6,1.9,0,3.2-2.1,3.9c-2.1,0.7-3.4-0.1-4-2l-1.3-4.2c-0.5-1.5,0.1-2.9,2.2-3.6
		C43.5,11.3,44.8,12.2,45.2,13.6z M41.4,14.7l1.5,4.7c0.2,0.6,0.7,0.7,1,0.6c0.4-0.1,0.7-0.5,0.5-1.1l-1.5-4.7
		c-0.2-0.5-0.6-0.6-1-0.5C41.5,13.8,41.2,14.2,41.4,14.7z"/>
	<path class="st0" d="M55.6,10.3l0.1,7.9l0.5,0l0.1,3.4L54,21.4l0-1.3l-3.4,0.1l0,1.2l-2.3,0.3l-0.1-3.3l0.3,0
		c0.7-1.1,0.9-2.1,0.8-5.2l0-2.8L55.6,10.3z M53.3,12.2l-1.6,0l0,1.8c0,1.9-0.1,3.2-0.7,4.3l2.3,0L53.3,12.2z"/>
	<path class="st0" d="M62,11.8l-0.4,4.3c0,0.4-0.2,1-0.5,2l0,0c0.4-1,0.6-1.5,0.8-1.9l2.1-3.8l2.3,0.7l-4.2,6.6
		c-1.1,1.7-1.7,1.9-3.3,1.4c-0.4-0.1-0.9-0.4-1.1-0.6l0.5-1.6c0.1,0.1,0.3,0.2,0.5,0.2c0.2,0.1,0.4,0.1,0.6-0.1l0.2-8L62,11.8z"/>
	<path class="st0" d="M69.3,19.3l3.5-2.3l2.1,1.4l-4.2,2.4l-1.2,5.8l-2.1-1.4l1-3.4l-1.2,0.6l-1.3,1.9l-1.9-1.2l5.4-8.2l1.9,1.2
		L69.3,19.3z"/>
	<path class="st0" d="M72.7,29.8l-1.4-1.6l5.9-5.3L76,21.5l1.4-1.2l3.8,4.3l-1.4,1.2l-1.2-1.3L72.7,29.8z"/>
	<g>
		<path class="st0" d="M21.3,64.6l-0.9-1.4l5.8-3.6l1.3,2c0.5,0.8,0.8,1.9-0.7,2.8c-1.4,0.9-2.3,0.2-2.8-0.6l-0.4-0.6L21.3,64.6z
			 M24.6,62.6l0.2,0.3c0.2,0.3,0.6,0.6,1.2,0.2c0.6-0.4,0.5-0.7,0.3-1.1L26,61.7L24.6,62.6z"/>
		<path class="st0" d="M30.4,68.3l-2.3,2c-1,0.9-2.1,0.9-3.1-0.2c-1-1.1-0.9-2.2,0.2-3.1l2.3-2c0.8-0.7,1.9-0.8,2.9,0.4
			C31.4,66.5,31.2,67.6,30.4,68.3z M28.7,66.1l-2.6,2.3c-0.3,0.3-0.3,0.6-0.1,0.8c0.2,0.2,0.5,0.3,0.8,0l2.6-2.3
			c0.3-0.3,0.2-0.6,0-0.8C29.3,65.9,29,65.8,28.7,66.1z"/>
		<path class="st0" d="M33,73.4l-0.4,0.5c-1,1.2-1.9,1.3-3.1,0.3c-1.2-1-1.3-1.9-0.3-3.1l1.9-2.3c0.7-0.8,1.7-1.1,2.9-0.1
			c1.2,1,1.2,2.1,0.5,2.9L34.1,72l-1.3-1l0.4-0.5c0.2-0.3,0.1-0.6-0.1-0.8c-0.2-0.2-0.5-0.2-0.8,0l-2.1,2.6c-0.3,0.4-0.3,0.7,0,0.9
			c0.3,0.2,0.6,0.2,0.9-0.2l0.6-0.7L33,73.4z"/>
		<path class="st0" d="M37.8,76.3l-0.3,0.6c-0.8,1.3-1.7,1.6-3,0.8c-1.3-0.7-1.6-1.7-0.8-3l1.5-2.6c0.5-0.9,1.5-1.3,2.9-0.6
			c1.3,0.8,1.5,1.9,1,2.8l-0.2,0.4l-1.4-0.8l0.3-0.5c0.2-0.3,0-0.6-0.3-0.8c-0.2-0.1-0.6-0.1-0.7,0.2l-1.7,3
			c-0.3,0.4-0.2,0.7,0.1,0.9c0.3,0.2,0.6,0.1,0.9-0.3l0.4-0.8L37.8,76.3z"/>
		<path class="st0" d="M41.8,73.5l-0.6,1.6c-0.3,0.7-0.8,1.7-1.1,2.3l0,0l2.8-3.5l1.5,0.5L42,80.8l-1.5-0.5l0.5-1.5
			c0.3-0.7,0.8-1.7,1.2-2.3l0,0l-2.8,3.4L38,79.4l2.3-6.4L41.8,73.5z"/>
		<path class="st0" d="M46.5,74.9l-0.3,1.7c-0.1,0.7-0.5,1.8-0.7,2.5l0,0l2.1-4l1.5,0.3l-1.2,6.7l-1.5-0.3l0.3-1.6
			c0.1-0.7,0.6-1.8,0.8-2.5l0,0l-2.1,3.8l-1.6-0.3l1.2-6.7L46.5,74.9z M46.6,73.2c0,0.4,0.4,0.6,0.7,0.6c0.4,0.1,0.7,0.1,0.9-0.3
			l0.6,0.1c-0.1,0.8-0.9,1.1-1.7,0.9c-0.8-0.2-1.3-0.6-1.2-1.5L46.6,73.2z"/>
		<path class="st0" d="M54.1,79.6l0,0.6c0,1.5-0.7,2.2-2.3,2.2c-1.5,0-2.2-0.7-2.2-2.3l0-3c0-1.1,0.7-1.9,2.3-1.9
			c1.5,0,2.2,0.9,2.2,2l0,0.5l-1.6,0l0-0.6c0-0.4-0.3-0.5-0.6-0.5c-0.3,0-0.6,0.1-0.6,0.5l-0.1,3.4c0,0.5,0.2,0.7,0.5,0.7
			c0.4,0,0.6-0.2,0.6-0.7l0-0.9L54.1,79.6z"/>
		<path class="st0" d="M56.7,77.9l0.7-2.9l1.8-0.3L58.2,78l2,3.5l-1.7,0.3l-1.1-2.2l-0.3,0.8l0.2,1.6l-1.5,0.2l-1-6.7l1.5-0.2
			L56.7,77.9z"/>
		<path class="st0" d="M64.2,75.1l0.9,2.9c0.4,1.3,0,2.2-1.4,2.7c-1.4,0.5-2.3-0.1-2.8-1.4L60,76.4c-0.3-1,0.1-2,1.5-2.5
			C63,73.4,63.9,74.1,64.2,75.1z M61.6,75.8l1.1,3.3c0.1,0.4,0.5,0.5,0.7,0.4c0.3-0.1,0.5-0.4,0.4-0.8l-1.1-3.3
			c-0.1-0.4-0.5-0.4-0.7-0.4C61.7,75.2,61.4,75.4,61.6,75.8z"/>
		<path class="st0" d="M67.6,71.4l0.6,1.2l-1.9,1l2.5,4.9l-1.5,0.7l-3.1-6.1L67.6,71.4z"/>
		<path class="st0" d="M72.6,70.1l1.8,2.5c0.8,1.1,0.7,2.1-0.5,3c-1.2,0.9-2.3,0.7-3.1-0.4L69,72.7c-0.6-0.9-0.6-2,0.7-2.9
			C70.9,68.9,71.9,69.2,72.6,70.1z M70.2,71.6l2,2.8c0.2,0.3,0.6,0.3,0.8,0.2c0.2-0.2,0.3-0.5,0.1-0.8l-2-2.8
			c-0.2-0.3-0.6-0.3-0.8-0.1C70.1,71,70,71.3,70.2,71.6z"/>
		<path class="st0" d="M76.5,63.3l5.2,4.4l-1.1,1.3l-4.2-3.6l-0.7,0.8l4.2,3.6L78.9,71l-5.2-4.4L76.5,63.3z"/>
		<path class="st0" d="M80.6,59.9l2.6,1.6c1.2,0.7,1.5,1.7,0.7,3c-0.8,1.3-1.8,1.5-3,0.8l-2.6-1.6c-0.9-0.5-1.3-1.6-0.5-2.9
			C78.6,59.5,79.7,59.4,80.6,59.9z M79.1,62.3l3,1.8c0.4,0.2,0.7,0.1,0.8-0.2c0.1-0.2,0.1-0.6-0.2-0.8l-3-1.8
			c-0.3-0.2-0.6,0-0.8,0.2C78.8,61.7,78.8,62.1,79.1,62.3z"/>
	</g>
	<g>
		<path class="st0" d="M34.6,82.7c-0.5-0.3-1.2-0.1-1.5,0.4c-0.3,0.5-0.1,1.2,0.4,1.5c0,0,0.1,0,0.1,0c0.1,0.1,0.3,0.1,0.5,0.1
			c0.4,0,0.8-0.2,1-0.6C35.3,83.6,35.1,82.9,34.6,82.7z"/>
		<path class="st0" d="M38,84.2c-0.6-0.2-1.2,0.1-1.4,0.6c-0.2,0.6,0.1,1.2,0.6,1.4c0,0,0.1,0,0.1,0c0.1,0,0.3,0.1,0.4,0.1
			c0.4,0,0.8-0.3,1-0.7C38.9,85,38.6,84.4,38,84.2z"/>
		<path class="st0" d="M41.6,85.4c-0.6-0.2-1.2,0.1-1.4,0.7c-0.2,0.6,0.1,1.2,0.7,1.4c0,0,0.1,0,0.1,0c0.1,0,0.2,0,0.3,0
			c0.5,0,0.9-0.3,1-0.8C42.6,86.2,42.2,85.6,41.6,85.4z"/>
		<path class="st0" d="M29.7,81.1c-0.3,0.5-0.2,1.2,0.3,1.5c0,0,0.1,0,0.1,0.1c0.2,0.1,0.4,0.2,0.5,0.2c0.4,0,0.7-0.2,0.9-0.5
			c0.3-0.5,0.2-1.2-0.3-1.5C30.8,80.5,30.1,80.6,29.7,81.1z"/>
		<path class="st0" d="M47.9,87.7c-0.1,0.6,0.4,1.1,1,1.2l0.1-1.1l0-1.1C48.5,86.7,47.9,87.1,47.9,87.7z"/>
		<path class="st0" d="M45.3,86.2c-0.6-0.1-1.2,0.3-1.3,0.9c-0.1,0.6,0.3,1.2,0.9,1.3l0,0c0.1,0,0.1,0,0.2,0c0.5,0,1-0.4,1.1-0.9
			C46.3,86.9,45.9,86.3,45.3,86.2z"/>
		<path class="st0" d="M16.2,64.1c-0.2-0.5-0.9-0.8-1.4-0.5c-0.5,0.2-0.8,0.9-0.5,1.4c0,0,0,0.1,0,0.1c0.2,0.4,0.6,0.6,0.9,0.6
			c0.2,0,0.3,0,0.5-0.1C16.2,65.3,16.4,64.7,16.2,64.1z"/>
		<path class="st0" d="M16.5,67.1c-0.5,0.3-0.7,1-0.4,1.5c0,0,0,0.1,0,0.1c0.2,0.3,0.5,0.5,0.9,0.5c0.2,0,0.4-0.1,0.6-0.2
			c0.5-0.3,0.7-1,0.4-1.5C17.7,66.9,17,66.8,16.5,67.1z"/>
		<path class="st0" d="M26.6,78.8c-0.4,0.5-0.3,1.2,0.2,1.5c0,0,0.1,0,0.1,0.1c0.2,0.1,0.4,0.2,0.6,0.2c0.3,0,0.6-0.2,0.9-0.4
			c0.4-0.5,0.3-1.2-0.2-1.5C27.6,78.3,27,78.4,26.6,78.8z"/>
		<path class="st0" d="M14.7,60.6c-0.2-0.6-0.8-0.9-1.4-0.7c-0.6,0.2-0.9,0.8-0.7,1.4c0,0,0,0.1,0,0.1c0.2,0.4,0.6,0.7,1,0.7
			c0.1,0,0.3,0,0.4-0.1C14.6,61.8,14.9,61.2,14.7,60.6z"/>
		<path class="st0" d="M51.8,88c0,0.6,0.5,1.1,1.1,1.1c0,0,0,0,0,0l0-1.1l-0.1-1.1C52.2,86.9,51.8,87.4,51.8,88z"/>
		<path class="st0" d="M20.1,70.5c-0.4-0.5-1-0.5-1.5-0.2c-0.5,0.4-0.6,1-0.2,1.5l0.9-0.6l-0.9,0.6c0.2,0.3,0.5,0.5,0.9,0.5
			c0.2,0,0.4-0.1,0.6-0.2C20.4,71.8,20.5,71.1,20.1,70.5C20.1,70.6,20.1,70.6,20.1,70.5z"/>
		<path class="st0" d="M23.7,76.2c-0.4,0.4-0.4,1.1,0,1.5c0,0,0.1,0.1,0.1,0.1c0.2,0.2,0.5,0.3,0.7,0.3c0.3,0,0.6-0.1,0.8-0.4
			c0.4-0.4,0.4-1.1,0-1.5C24.8,75.8,24.1,75.8,23.7,76.2z"/>
		<path class="st0" d="M21,73.4c-0.5,0.4-0.5,1.1-0.1,1.5c0,0,0,0,0.1,0.1c0.2,0.2,0.5,0.3,0.8,0.3c0.3,0,0.5-0.1,0.7-0.3
			c0.4-0.4,0.5-1.1,0.1-1.6C22.1,73.1,21.4,73,21,73.4z"/>
		<path class="st0" d="M85.3,70c-0.3,0.5-0.2,1.2,0.3,1.5c0.2,0.1,0.4,0.2,0.6,0.2c0.3,0,0.7-0.2,0.9-0.5l-0.9-0.7L85.3,70z"/>
		<path class="st0" d="M83,72.9c-0.4,0.4-0.4,1.1,0.1,1.5c0.2,0.2,0.5,0.3,0.7,0.3c0.3,0,0.6-0.1,0.8-0.4c0,0,0.1-0.1,0.1-0.1
			c0.4-0.5,0.3-1.1-0.1-1.5C84.1,72.5,83.4,72.5,83,72.9z"/>
		<path class="st0" d="M88.9,66.4c-0.5-0.3-1.2-0.1-1.5,0.4c0,0,0,0.1-0.1,0.1c-0.3,0.5-0.1,1.2,0.4,1.5c0.2,0.1,0.3,0.1,0.5,0.1
			c0.4,0,0.8-0.2,1-0.5l-0.9-0.6l0.9,0.6C89.6,67.4,89.4,66.7,88.9,66.4z"/>
		<path class="st0" d="M80.3,75.7c-0.4,0.4-0.4,1.1,0,1.5c0.2,0.2,0.5,0.3,0.8,0.3c0.3,0,0.5-0.1,0.8-0.3l-0.7-0.8L80.3,75.7z"/>
		<path class="st0" d="M92,59.2c-0.6-0.2-1.2,0.1-1.4,0.7c0,0,0,0.1,0,0.1c-0.2,0.6,0.1,1.2,0.7,1.4c0.1,0,0.2,0.1,0.3,0.1
			c0.5,0,0.9-0.3,1-0.7l-1-0.4l1,0.4C92.9,60.1,92.6,59.4,92,59.2z"/>
		<path class="st0" d="M90.6,62.9c-0.5-0.3-1.2,0-1.5,0.5c-0.3,0.5-0.1,1.2,0.5,1.5C89.8,65,90,65,90.1,65c0.4,0,0.8-0.2,1-0.6
			c0,0,0-0.1,0-0.1C91.4,63.8,91.2,63.1,90.6,62.9z"/>
		<path class="st0" d="M74.4,80.4c-0.5,0.3-0.7,1-0.4,1.5c0.2,0.3,0.6,0.5,0.9,0.5c0.2,0,0.4-0.1,0.6-0.2c0,0,0.1,0,0.1-0.1
			c0.5-0.3,0.6-1,0.3-1.5C75.6,80.2,74.9,80.1,74.4,80.4z"/>
		<path class="st0" d="M64.1,85.2c-0.6,0.2-0.9,0.8-0.7,1.4c0.1,0.5,0.6,0.8,1,0.8c0.1,0,0.2,0,0.3-0.1l-0.3-1.1L64.1,85.2z"/>
		<path class="st0" d="M67.7,83.9c-0.6,0.2-0.8,0.9-0.6,1.4c0.2,0.4,0.6,0.7,1,0.7c0.1,0,0.3,0,0.4-0.1l0,0c0.6-0.2,0.8-0.9,0.6-1.4
			C68.9,83.9,68.2,83.7,67.7,83.9z"/>
		<path class="st0" d="M60.4,86.1c-0.6,0.1-1,0.7-0.9,1.3c0.1,0.5,0.6,0.9,1.1,0.9c0.1,0,0.1,0,0.2,0c0,0,0.1,0,0.1,0
			c0.6-0.1,0.9-0.7,0.8-1.3C61.6,86.4,61,86,60.4,86.1z"/>
		<path class="st0" d="M71.1,82.3c-0.5,0.3-0.8,0.9-0.5,1.5c0.2,0.4,0.6,0.6,1,0.6c0.2,0,0.3,0,0.5-0.1c0,0,0.1,0,0.1,0
			c0.5-0.3,0.7-0.9,0.4-1.5C72.3,82.2,71.7,82,71.1,82.3z"/>
		<path class="st0" d="M77.5,78.2C77.5,78.2,77.5,78.2,77.5,78.2c-0.5,0.5-0.6,1.1-0.2,1.6c0.2,0.3,0.5,0.4,0.8,0.4
			c0.2,0,0.5-0.1,0.7-0.2L78.2,79l0.7,0.9c0.5-0.4,0.6-1,0.2-1.5C78.7,77.9,78,77.8,77.5,78.2z"/>
		<path class="st0" d="M56.7,86.6c-0.6,0.1-1,0.6-1,1.2c0,0.6,0.5,1,1.1,1c0,0,0.1,0,0.1,0c0,0,0.1,0,0.1,0c0.6-0.1,1-0.6,0.9-1.2
			C57.8,87,57.3,86.6,56.7,86.6z"/>
	</g>
	<g>
		<path class="st0" d="M35.5,7.5l0.4,1l0.5,1c0.6-0.2,0.8-0.9,0.6-1.4C36.7,7.5,36.1,7.2,35.5,7.5z"/>
		<path class="st0" d="M32,9.2l0.5,1l0.6,0.9c0.5-0.3,0.7-1,0.4-1.5C33.2,9.1,32.6,8.9,32,9.2z"/>
		<path class="st0" d="M28.7,11.2C28.7,11.2,28.7,11.2,28.7,11.2c-0.6,0.4-0.7,1-0.3,1.5c0.2,0.3,0.6,0.5,0.9,0.5
			c0.2,0,0.4-0.1,0.6-0.2c0.5-0.3,0.7-1,0.3-1.5C29.9,11,29.3,10.9,28.7,11.2z"/>
		<path class="st0" d="M39.1,6.1C39.1,6.1,39.1,6.1,39.1,6.1c-0.6,0.2-0.9,0.8-0.7,1.4c0.2,0.5,0.6,0.7,1,0.7c0.1,0,0.2,0,0.4-0.1
			c0.6-0.2,0.9-0.8,0.7-1.4C40.3,6.2,39.7,5.9,39.1,6.1z"/>
		<path class="st0" d="M46.7,4.4C46.7,4.4,46.6,4.4,46.7,4.4c-0.7,0.1-1.1,0.6-1,1.2c0.1,0.5,0.6,0.9,1.1,0.9c0,0,0.1,0,0.1,0
			c0.6-0.1,1-0.6,0.9-1.2C47.9,4.7,47.3,4.3,46.7,4.4z"/>
		<path class="st0" d="M42.9,5.1C42.9,5.1,42.8,5.1,42.9,5.1c-0.7,0.2-1,0.7-0.9,1.3c0.1,0.5,0.6,0.8,1.1,0.8c0.1,0,0.2,0,0.2,0
			c0.6-0.1,1-0.7,0.8-1.3C44.1,5.3,43.5,4.9,42.9,5.1z"/>
		<path class="st0" d="M50.6,4c0,0-0.1,0-0.1,0c-0.6,0-1,0.5-1,1.1c0,0.6,0.5,1,1.1,1c0,0,0,0,0,0c0.6,0,1.1-0.5,1.1-1.1
			C51.7,4.5,51.2,4,50.6,4z"/>
		<path class="st0" d="M15.3,28.2c-0.5-0.3-1.2,0-1.5,0.5c0,0,0,0.1,0,0.1c-0.2,0.5,0,1.2,0.5,1.4c0.1,0.1,0.3,0.1,0.4,0.1
			c0.4,0,0.8-0.2,1-0.6C16.1,29.1,15.8,28.5,15.3,28.2z"/>
		<path class="st0" d="M17.1,24.9c-0.5-0.3-1.2-0.2-1.5,0.4c0,0,0,0.1-0.1,0.1c-0.3,0.5-0.1,1.2,0.4,1.4c0.2,0.1,0.4,0.1,0.5,0.1
			c0.4,0,0.7-0.2,1-0.5C17.8,25.9,17.6,25.2,17.1,24.9z"/>
		<path class="st0" d="M13.7,31.7c-0.6-0.2-1.2,0.1-1.4,0.7l1,0.4l-1-0.4c-0.2,0.6,0.1,1.2,0.6,1.4c0.1,0,0.3,0.1,0.4,0.1
			c0.4,0,0.9-0.3,1-0.7c0,0,0-0.1,0-0.1C14.6,32.5,14.3,31.9,13.7,31.7z"/>
		<path class="st0" d="M22.7,16.1C22.7,16.1,22.7,16.2,22.7,16.1c-0.5,0.5-0.4,1.1,0,1.6c0.2,0.2,0.5,0.3,0.8,0.3
			c0.3,0,0.6-0.1,0.8-0.3c0.4-0.4,0.4-1.1,0-1.5C23.8,15.7,23.1,15.7,22.7,16.1z"/>
		<path class="st0" d="M19.2,21.8c-0.5-0.3-1.2-0.2-1.5,0.3l0.9,0.7L17.7,22c-0.4,0.5-0.3,1.2,0.2,1.5c0.2,0.1,0.4,0.2,0.6,0.2
			c0.3,0,0.7-0.2,0.9-0.4c0,0,0.1-0.1,0.1-0.1C19.8,22.7,19.7,22.1,19.2,21.8z"/>
		<path class="st0" d="M25.6,13.5l0.7,0.9l0.7,0.8c0.5-0.4,0.5-1.1,0.1-1.5C26.7,13.2,26.1,13.2,25.6,13.5z"/>
		<path class="st0" d="M20.1,18.9C20.1,18.9,20,19,20.1,18.9c-0.4,0.5-0.4,1.2,0.1,1.6c0.2,0.2,0.5,0.3,0.7,0.3
			c0.3,0,0.6-0.1,0.8-0.4c0.4-0.5,0.4-1.1-0.1-1.5C21.2,18.4,20.5,18.5,20.1,18.9z"/>
		<path class="st0" d="M84.1,19.6l-0.8,0.8c0.2,0.2,0.5,0.4,0.8,0.4c0.3,0,0.5-0.1,0.7-0.3c0.5-0.4,0.5-1.1,0.1-1.5L84.1,19.6z"/>
		<path class="st0" d="M87.3,22.1C87.3,22,87.3,22,87.3,22.1c-0.4-0.6-1.1-0.7-1.6-0.3c-0.5,0.3-0.6,1-0.3,1.5
			c0.2,0.3,0.6,0.5,0.9,0.5c0.2,0,0.4-0.1,0.6-0.2C87.5,23.2,87.7,22.6,87.3,22.1z"/>
		<path class="st0" d="M82.2,16.1c-0.4-0.4-1.1-0.4-1.5,0c-0.4,0.4-0.4,1.1,0,1.6c0.2,0.2,0.5,0.3,0.8,0.3c0.3,0,0.6-0.1,0.8-0.3
			C82.7,17.2,82.7,16.6,82.2,16.1C82.3,16.1,82.2,16.1,82.2,16.1z"/>
		<path class="st0" d="M91.2,28.7C91.2,28.7,91.2,28.7,91.2,28.7c-0.3-0.6-0.9-0.8-1.5-0.6c-0.5,0.3-0.8,0.9-0.5,1.5
			c0.2,0.4,0.6,0.6,1,0.6c0.2,0,0.3,0,0.4-0.1C91.2,29.9,91.4,29.3,91.2,28.7z"/>
		<path class="st0" d="M92.6,32.4C92.6,32.3,92.6,32.3,92.6,32.4c-0.2-0.6-0.8-0.9-1.4-0.7c-0.6,0.2-0.9,0.8-0.7,1.4
			c0.1,0.5,0.6,0.8,1,0.8c0.1,0,0.2,0,0.3-0.1C92.5,33.5,92.8,32.9,92.6,32.4z"/>
		<path class="st0" d="M79.4,13.5c-0.5-0.4-1.1-0.3-1.5,0.2c-0.4,0.5-0.3,1.2,0.2,1.5c0.2,0.2,0.5,0.3,0.7,0.3
			c0.3,0,0.6-0.1,0.8-0.4C79.9,14.6,79.9,13.9,79.4,13.5C79.4,13.5,79.4,13.5,79.4,13.5z"/>
		<path class="st0" d="M89.4,25.3l-1,0.5L89.4,25.3c-0.3-0.5-1-0.7-1.5-0.4c-0.5,0.3-0.7,1-0.4,1.5c0,0,0,0.1,0.1,0.1
			c0.2,0.3,0.6,0.5,0.9,0.5c0.2,0,0.4-0.1,0.6-0.2C89.5,26.5,89.7,25.8,89.4,25.3z"/>
		<path class="st0" d="M69.5,7.5C69.5,7.5,69.4,7.5,69.5,7.5c-0.6-0.3-1.2,0-1.5,0.6c-0.2,0.6,0,1.2,0.6,1.4
			c0.1,0.1,0.3,0.1,0.4,0.1c0.4,0,0.8-0.2,1-0.7C70.3,8.4,70,7.7,69.5,7.5z"/>
		<path class="st0" d="M62.1,5.1l-0.3,1.1l-0.2,1.1c0.1,0,0.1,0,0.2,0c0.5,0,0.9-0.3,1.1-0.9C63.1,5.8,62.7,5.2,62.1,5.1z"/>
		<path class="st0" d="M65.8,6.1l-0.4,1l-0.3,1.1c0.1,0,0.2,0,0.3,0c0.5,0,0.9-0.3,1-0.8C66.7,6.9,66.4,6.3,65.8,6.1z"/>
		<path class="st0" d="M58.3,4.4C58.3,4.4,58.2,4.3,58.3,4.4c-0.6-0.1-1.2,0.4-1.2,1c-0.1,0.6,0.4,1.1,1,1.2c0,0,0.1,0,0.1,0
			c0.5,0,1-0.4,1.1-1C59.3,5,58.9,4.4,58.3,4.4z"/>
		<path class="st0" d="M54.5,4C54.4,4,54.4,4,54.5,4c-0.7,0-1.2,0.4-1.2,1c0,0.6,0.5,1.1,1,1.1c0,0,0,0,0.1,0c0.6,0,1.1-0.4,1.1-1
			C55.5,4.6,55.1,4,54.5,4z"/>
		<path class="st0" d="M73,9.2C73,9.2,72.9,9.2,73,9.2c-0.6-0.3-1.2-0.1-1.5,0.4c-0.3,0.5-0.1,1.2,0.4,1.5c0.2,0.1,0.4,0.1,0.5,0.1
			c0.4,0,0.7-0.2,0.9-0.6C73.7,10.2,73.5,9.5,73,9.2z"/>
		<path class="st0" d="M76.3,11.2l-0.6,0.9L75.1,13c0.2,0.1,0.4,0.2,0.6,0.2c0.4,0,0.7-0.2,0.9-0.5C76.9,12.2,76.8,11.5,76.3,11.2z"
			/>
	</g>
	<g>
		<path class="st0" d="M82.4,40.6V46H83c1.3,0,1.4-0.7,1.4-2.7c0-1.9-0.1-2.7-1.4-2.7H82.4z"/>
		<path class="st0" d="M28.6,40.6H28V46h0.6c1.3,0,1.4-0.7,1.4-2.7C30.1,41.4,30,40.6,28.6,40.6z"/>
		<path class="st0" d="M97.4,34.4C92.1,14.6,74,0,52.5,0S12.9,14.6,7.6,34.4H0v24.2h7.6C12.9,78.4,31,93,52.5,93
			s39.6-14.6,44.9-34.4h7.6V34.4H97.4z M52.5,2.8c19.9,0,36.7,13.3,41.9,31.5h-4.3C85,18.5,70.1,7,52.5,7C34.9,7,20,18.5,14.9,34.4
			h-4.3C15.8,16.2,32.6,2.8,52.5,2.8z M73.6,34.4c-4.2-7.3-12.1-12.2-21.1-12.2s-16.9,4.9-21.1,12.2H15.9C21,19.1,35.5,8,52.5,8
			S84,19.1,89.1,34.4H73.6z M88.3,41.8v3c0,2.5-2.2,3.6-4.5,3.6h-1.4v6.4h-3.8V38.3h4.7C86.3,38.3,88.3,39,88.3,41.8z M60.5,40.6
			c-0.8,0-1,0.6-1,1.3v9.3c0,0.7,0.2,1.3,1,1.3c0.8,0,1-0.6,1-1.3v-2.8h3.8v2.2c0,3.1-1.6,4.6-4.9,4.6c-2.5,0-4.8-1-4.8-4.8v-7.5
			c0-3.8,2.3-4.8,4.8-4.8c2.8,0,4.9,0.8,4.9,4.4v1.8h-3.8v-2.3C61.5,41.2,61.3,40.6,60.5,40.6z M33.6,34.4c4-6.2,11-10.3,18.9-10.3
			s14.9,4.1,18.9,10.3H33.6z M53.7,44.4v2.5h-4v5.4h4.1v2.5h-8V38.3h8v2.5h-4.1v3.6H53.7z M43.9,44.4v2.5h-4v5.4h4.1v2.5h-8V38.3h8
			v2.5h-4.1v3.6H43.9z M33.9,41.8v3c0,2.5-2.2,3.6-4.5,3.6H28v6.4h-3.8V38.3h4.7C32,38.3,33.9,39,33.9,41.8z M71.4,58.6
			c-4,6.2-11,10.3-18.9,10.3s-14.9-4.1-18.9-10.3H71.4z M70.1,54.8v-14h-2.7v-2.5h9.2v2.5h-2.7v14H70.1z M31.4,58.6
			c4.2,7.3,12.1,12.2,21.1,12.2s16.9-4.9,21.1-12.2h15.5C84,73.9,69.5,85,52.5,85S21,73.9,15.9,58.6H31.4z M5.7,54.8V38.3h3.9
			c3.3,0,5.8,0,5.8,4c0,1.8-0.5,3.5-2.7,3.7v0.2c2.5,0,2.7,1.8,2.7,3.9c0,4.5-1.8,4.7-5.8,4.7H5.7z M52.5,90.2
			c-19.9,0-36.7-13.3-41.9-31.5h4.3C20,74.5,34.9,86,52.5,86C70.1,86,85,74.5,90.1,58.6h4.3C89.2,76.8,72.4,90.2,52.5,90.2z
			 M98.5,40.8h-4.1v3.6h4v2.5h-4v5.4h4.1v2.5h-8V38.3h8V40.8z"/>
		<path class="st0" d="M11.6,49.7c0-2.3-0.4-2.4-2-2.4v5.1C11.4,52.4,11.6,52.1,11.6,49.7z"/>
		<path class="st0" d="M11.6,42.8c0-1.8-0.3-2.2-2-2.2V45C11.4,45,11.6,44.6,11.6,42.8z"/>
	</g>
	<g>
		<polygon class="st0" points="52.5,62.5 53.3,64.1 55,64.3 53.7,65.5 54,67.2 52.5,66.4 51,67.2 51.3,65.5 50,64.3 51.7,64.1 		"/>
		<polygon class="st0" points="63.3,59.6 64,61.1 65.7,61.4 64.5,62.6 64.8,64.2 63.3,63.4 61.8,64.2 62,62.6 60.8,61.4 62.5,61.1 
					"/>
		<polygon class="st0" points="41.7,59.6 42.5,61.1 44.2,61.4 43,62.6 43.2,64.2 41.7,63.4 40.2,64.2 40.5,62.6 39.3,61.4 41,61.1 
					"/>
	</g>
	<g>
		<polygon class="st0" points="52.5,30.6 53.3,29.1 55,28.8 53.7,27.6 54,25.9 52.5,26.7 51,25.9 51.3,27.6 50,28.8 51.7,29.1 		"/>
		<polygon class="st0" points="63.3,33.6 64,32 65.7,31.8 64.5,30.6 64.8,28.9 63.3,29.7 61.8,28.9 62,30.6 60.8,31.8 62.5,32 		"/>
		<polygon class="st0" points="41.7,33.6 42.5,32 44.2,31.8 43,30.6 43.2,28.9 41.7,29.7 40.2,28.9 40.5,30.6 39.3,31.8 41,32 		"/>
	</g>
	<circle class="st0" cx="45.1" cy="87.3" r="1.1"/>
	<circle class="st0" cx="49" cy="87.8" r="1.1"/>
	<circle class="st0" cx="52.9" cy="87.9" r="1.1"/>
	<circle class="st0" cx="64.4" cy="86.2" r="1.1"/>
	<circle class="st0" cx="81.1" cy="76.5" r="1.1"/>
	<circle class="st0" cx="86.2" cy="70.6" r="1.1"/>
	<circle class="st0" cx="26.3" cy="14.4" r="1.1"/>
	<circle class="st0" cx="32.5" cy="10.2" r="1.1"/>
	<circle class="st0" cx="36" cy="8.5" r="1.1"/>
	<circle class="st0" cx="61.9" cy="6.1" r="1.1"/>
	<circle class="st0" cx="65.5" cy="7.1" r="1.1"/>
	<circle class="st0" cx="75.7" cy="12.1" r="1.1"/>
	<circle class="st0" cx="84.1" cy="19.7" r="1.1"/>
</g>
</svg>
